<?xml version="1.0" encoding="UTF-8"?>
<svg version="1.1" xmlns="http://www.w3.org/2000/svg" width="1200" height="1212">
<path d="M0 0 C2.65527344 1.13891602 2.65527344 1.13891602 5.359375 2.75390625 C6.88884766 3.65302734 6.88884766 3.65302734 8.44921875 4.5703125 C9.53847656 5.22773437 10.62773438 5.88515625 11.75 6.5625 C12.90673576 7.24747417 14.06430424 7.93104385 15.22265625 8.61328125 C17.62761083 10.03120342 20.02887559 11.45509179 22.42773438 12.88330078 C27.91885412 16.14576589 33.46195091 19.31810993 39 22.5 C41.16691089 23.74957658 43.33357685 24.999578 45.5 26.25 C47.10875 27.178125 47.10875 27.178125 48.75 28.125 C69.33333333 40 89.91666667 51.875 110.5 63.75 C111.57314453 64.36907227 112.64628906 64.98814453 113.75195312 65.62597656 C115.91228293 66.87242061 118.07244003 68.11916402 120.23242188 69.36621094 C125.74464393 72.54813031 131.26003792 75.72432714 136.78125 78.890625 C146.97123955 84.74043381 157.11934836 90.62739746 167.11328125 96.80664062 C176.78835305 102.75986048 186.67477253 108.35369498 196.52880859 114.00341797 C200.11643469 116.06383162 203.69336278 118.1424398 207.26953125 120.22265625 C209.04414517 121.25318702 210.81892022 122.28343969 212.59375 123.31359863 C214.27596655 124.29126753 215.95636389 125.2720645 217.63671875 126.25292969 C218.66023437 126.8462207 219.68375 127.43951172 220.73828125 128.05078125 C221.63587158 128.57325439 222.53346191 129.09572754 223.45825195 129.6340332 C225.92213502 130.9581544 228.38364731 132.01706574 231 133 C231 133.66 231 134.32 231 135 C233.31 135.66 235.62 136.32 238 137 C238 137.66 238 138.32 238 139 C238.70600342 139.10094971 239.41200684 139.20189941 240.1394043 139.3059082 C243.43410551 140.10533088 245.83633082 141.40602391 248.76953125 143.10546875 C249.89488281 143.75298096 251.02023437 144.40049316 252.1796875 145.06762695 C253.39075814 145.77402309 254.60169268 146.48065261 255.8125 147.1875 C257.05827694 147.90834402 258.30437455 148.62863411 259.55078125 149.34838867 C262.10747587 150.82663758 264.66150659 152.3093408 267.21337891 153.79589844 C270.8183549 155.89589117 274.43018043 157.98378782 278.04296875 160.0703125 C280.19565218 161.31712205 282.34801213 162.56449031 284.5 163.8125 C285.50135986 164.39217529 286.50271973 164.97185059 287.53442383 165.5690918 C288.46150146 166.10961182 289.3885791 166.65013184 290.34375 167.20703125 C291.15005859 167.6760083 291.95636719 168.14498535 292.78710938 168.62817383 C293.51736328 169.08087646 294.24761719 169.5335791 295 170 C295.69631956 170.40492221 296.39263911 170.80984443 297.11005926 171.22703701 C299 173 299 173 299.48019266 175.5773496 C299.47087009 176.62077144 299.46154752 177.66419329 299.45194244 178.73923397 C299.45105606 179.9430616 299.45016967 181.14688923 299.44925642 182.38719648 C299.42795302 183.72997339 299.40632218 185.07274514 299.38439941 186.41551208 C299.37595708 187.83672047 299.36933023 189.25794062 299.36436892 190.67916542 C299.34966438 193.77566301 299.32215493 196.87170059 299.28503227 199.96800995 C299.22471578 205.00568143 299.19182939 210.043319 299.16249084 215.08125305 C299.12336734 221.44774565 299.07676326 227.81411183 299.02150059 234.18048496 C298.91297803 246.69749532 298.85375637 259.21430834 298.81262207 271.73170471 C298.80589626 273.7019244 298.79914204 275.67214399 298.79235983 277.64236349 C298.78212039 280.62861044 298.77191261 283.61485747 298.76182386 286.60110493 C298.72358209 297.86552291 298.67996741 309.1299133 298.63037109 320.39428711 C298.62585349 321.42419559 298.62133589 322.45410407 298.6166814 323.5152219 C298.54164742 340.1910486 298.40762203 356.86596798 298.25529152 373.54124414 C298.10062721 390.66337587 298.02253362 407.78471777 298.01187849 424.90754658 C298.0026342 435.4680842 297.93201694 446.02459072 297.78218007 456.58408541 C297.68485279 463.82698117 297.66093924 471.06780704 297.69419503 478.31127083 C297.7111317 482.48948042 297.69585967 486.66090836 297.5923481 490.83801651 C296.54261164 507.03313402 296.54261164 507.03313402 301.97752571 521.49562573 C306.69664925 525.54644929 311.87249061 528.01029303 317.68288612 530.12284386 C320.65901446 531.24947353 323.25165076 532.80498217 325.921875 534.5234375 C327.53072475 535.4748471 329.14009036 536.42538497 330.75 537.375 C332.10339478 538.17405762 332.10339478 538.17405762 333.48413086 538.98925781 C341.15678825 543.513837 348.84907125 548.00448561 356.54589844 552.48779297 C363.91984982 556.78356209 371.28487728 561.09429691 378.64575195 565.41241455 C380.49734919 566.4984452 382.34920934 567.58402602 384.20117188 568.66943359 C385.11197006 569.20324142 385.11197006 569.20324142 386.04116821 569.74783325 C387.25793967 570.46095633 388.47471617 571.1740708 389.6914978 571.88717651 C393.62028259 574.19007352 397.54674563 576.49689277 401.47265625 578.8046875 C410.50016044 584.10172938 419.54191055 589.33515435 428.75 594.3125 C437.71581851 599.16404992 446.40756564 604.43709552 455.09945679 609.75695801 C462.28349678 614.15353074 469.48148458 618.4860392 476.85888672 622.55273438 C483.27683793 626.10914668 489.57099501 629.8714619 495.875 633.625 C504.98292476 639.04653534 514.12219034 644.40616286 523.3125 649.6875 C532.17680407 654.78228596 541.00479188 659.93229436 549.79833984 665.14819336 C557.59723359 669.77173195 565.42666313 674.34177839 573.26806641 678.89282227 C575.10430945 679.96067069 576.92265994 681.06000212 578.71988583 682.19228649 C581.98125585 684.13620402 581.98125585 684.13620402 585.78820896 685.15783405 C590.51030928 686.7840758 594.15833734 688.78662263 597 693 C599.90711664 702.58764101 599.16692289 713.32846147 599.09280145 723.26032436 C599.07735294 727.49624407 599.14808058 731.73087884 599.2071991 735.96629333 C599.3085044 744.25803121 599.32761479 752.54799118 599.31523465 760.8402647 C599.30595282 767.58308645 599.32265517 774.32536068 599.35768318 781.06809425 C599.36759512 783.01235622 599.37750588 784.95661818 599.38741547 786.90088016 C599.39235581 787.86869113 599.39729615 788.8365021 599.4023862 789.83364067 C599.49168315 808.12897671 599.48209747 826.423296 599.44332368 844.71874086 C599.4111035 861.43908155 599.50727683 878.15581565 599.66369974 894.87536242 C599.82321697 912.05900569 599.89329584 929.24093127 599.8681789 946.42532569 C599.85572514 956.06706344 599.87866377 965.70557173 599.99600029 975.34668541 C600.09502093 983.55732481 600.10956427 991.7628878 600.01673102 999.97368684 C599.97169494 1004.16101926 599.96439352 1008.33897594 600.06280518 1012.52560425 C600.59889617 1036.91856568 600.59889617 1036.91856568 594.62346196 1043.69518304 C588.88608378 1048.28012359 582.62288611 1051.25071386 575.80318558 1053.88404524 C572.14783388 1055.33924933 568.93908251 1057.18827174 565.57421875 1059.21875 C563.61324759 1060.31477252 561.65108679 1061.40867045 559.6875 1062.5 C558.69556641 1063.05429688 557.70363281 1063.60859375 556.68164062 1064.1796875 C553.79106597 1065.79250322 550.89632819 1067.39754367 548 1069 C546.99485352 1069.55913086 545.98970703 1070.11826172 544.95410156 1070.69433594 C543.97795898 1071.23348633 543.00181641 1071.77263672 541.99609375 1072.328125 C541.12267334 1072.8118457 540.24925293 1073.29556641 539.34936523 1073.79394531 C536.65105014 1075.1791346 533.88752652 1076.08814952 531 1077 C530.67 1077.66 530.34 1078.32 530 1079 C528.01071831 1080.14023542 525.98057941 1081.20922865 523.9375 1082.25 C516.99845045 1085.85355907 510.23968075 1089.72496322 503.5 1093.6875 C495.3146115 1098.49763091 487.09217054 1103.22901077 478.8125 1107.875 C473.01590148 1111.13047895 467.25327469 1114.39822446 461.625 1117.9375 C454.54111523 1122.37772738 447.21969333 1126.38272033 439.91455078 1130.44506836 C432.5578223 1134.54462349 425.2613317 1138.73399011 418 1143 C408.85101966 1148.37222245 399.6259625 1153.5907687 390.35546875 1158.75 C383.18646305 1162.74964452 376.07907237 1166.84348044 369 1171 C360.885807 1175.76429681 352.72187414 1180.42405372 344.5 1185 C335.93028097 1189.77202787 327.41020036 1194.62009145 318.9375 1199.5625 C317.95652344 1200.13419922 316.97554687 1200.70589844 315.96484375 1201.29492188 C315.03671875 1201.83826172 314.10859375 1202.38160156 313.15234375 1202.94140625 C312.27175293 1203.45461426 311.39116211 1203.96782227 310.48388672 1204.49658203 C308.87909839 1205.46790958 307.29936167 1206.48247915 305.75439453 1207.54638672 C304.73321533 1208.24852295 304.73321533 1208.24852295 303.69140625 1208.96484375 C303.11720947 1209.38241943 302.5430127 1209.79999512 301.95141602 1210.23022461 C299.01200573 1211.38973426 297.02110468 1210.78281755 294 1210 C291.37646484 1208.76342773 291.37646484 1208.76342773 288.7109375 1207.18359375 C287.7017627 1206.59263916 286.69258789 1206.00168457 285.65283203 1205.39282227 C284.57114746 1204.74756592 283.48946289 1204.10230957 282.375 1203.4375 C281.22182692 1202.75925361 280.06800406 1202.08211093 278.91357422 1201.40600586 C277.10731618 1200.34788747 275.30153328 1199.28902769 273.49771118 1198.22676086 C267.07467506 1194.44451464 260.60199046 1190.75158434 254.125 1187.0625 C252.36311017 1186.05714601 250.60148374 1185.0513316 248.83987427 1184.04548645 C247.07080535 1183.03543764 245.30153407 1182.02574408 243.53222656 1181.01611328 C238.26923472 1178.01250497 233.00827884 1175.00533424 227.74716187 1171.9984436 C226.00057178 1171.00032675 224.25384669 1170.00244656 222.50708008 1169.00463867 C217.22755403 1165.98864263 211.94871823 1162.97146693 206.67306519 1159.94869995 C203.71996984 1158.2567216 200.76637011 1156.56562536 197.8125 1154.875 C197.23149536 1154.54244202 196.65049072 1154.20988403 196.05187988 1153.86724854 C187.81214548 1149.15329929 179.54187472 1144.49660485 171.25 1139.875 C156.54110021 1131.67018637 141.95847478 1123.2431266 127.5625 1114.5 C120.10579397 1109.9764704 112.47532675 1105.7670929 104.85449219 1101.52807617 C96.09732137 1096.64548567 87.42720938 1091.62415768 78.79125977 1086.53051758 C73.17971725 1083.21193824 73.17971725 1083.21193824 67.38671875 1080.23046875 C65 1079 65 1079 64 1077 C62.38345402 1076.57266208 60.76683421 1076.14560205 59.14990234 1075.71972656 C54.7399497 1074.24339901 50.81587229 1071.70555443 46.8125 1069.375 C45.83087891 1068.81176025 44.84925781 1068.24852051 43.83789062 1067.66821289 C41.70352744 1066.44308443 39.57094784 1065.2148447 37.43994141 1063.98388672 C33.80305911 1061.88642004 30.15874566 1059.80241052 26.51171875 1057.72265625 C25.24958691 1057.00277778 23.98746123 1056.28288851 22.7253418 1055.56298828 C22.10670258 1055.21012756 21.48806335 1054.85726685 20.85067749 1054.49371338 C17.89917288 1052.80923909 14.94958509 1051.12142716 12 1049.43359375 C10.948125 1048.83659668 9.89625 1048.23959961 8.8125 1047.62451172 C7.12783687 1046.65144328 5.45581516 1045.65514715 3.8125 1044.61376953 C0.4663997 1042.4666954 0.4663997 1042.4666954 -3.39526367 1042.25488281 C-6.10928108 1043.03126121 -8.22986756 1044.04556215 -10.67578125 1045.44921875 C-11.57466064 1045.96097656 -12.47354004 1046.47273438 -13.3996582 1047 C-14.84151489 1047.8353125 -14.84151489 1047.8353125 -16.3125 1048.6875 C-17.31563232 1049.26113281 -18.31876465 1049.83476563 -19.35229492 1050.42578125 C-24.75195077 1053.52158952 -30.12877496 1056.65595815 -35.5 1059.80078125 C-37.08494263 1060.7285437 -37.08494263 1060.7285437 -38.7019043 1061.67504883 C-40.72128303 1062.85979539 -42.73850762 1064.04822419 -44.75317383 1065.2409668 C-61.33108289 1075 -61.33108289 1075 -65 1075 C-65.33 1075.66 -65.66 1076.32 -66 1077 C-67.7960609 1078.14406619 -69.64062468 1079.21199921 -71.5 1080.25 C-72.10602051 1080.5907959 -72.71204102 1080.9315918 -73.33642578 1081.28271484 C-75.55427736 1082.52787164 -77.77693655 1083.76417274 -80 1085 C-99.7959367 1096.02926606 -119.46989552 1107.23155495 -138.875 1118.9375 C-149.71080798 1125.47395663 -160.68004946 1131.77459444 -171.65332031 1138.07666016 C-177.10638623 1141.21054207 -182.55291228 1144.35574277 -188 1147.5 C-190.16663414 1148.75005639 -192.33330083 1150.00005634 -194.5 1151.25 C-195.5725 1151.86875 -196.645 1152.4875 -197.75 1153.125 C-207.49999999 1158.75 -207.49999999 1158.75 -210.75048828 1160.62524414 C-212.91557071 1161.87435518 -215.08060982 1163.12354129 -217.24560547 1164.37280273 C-222.68615706 1167.51202309 -228.12747216 1170.64990563 -233.5703125 1173.78515625 C-244.1428854 1179.87673239 -254.70738332 1185.98170088 -265.25 1192.125 C-266.22453125 1192.69114014 -267.1990625 1193.25728027 -268.203125 1193.84057617 C-273.22666513 1196.76636967 -278.22007192 1199.73257514 -283.1796875 1202.765625 C-284.17838867 1203.37132324 -285.17708984 1203.97702148 -286.20605469 1204.60107422 C-288.10154379 1205.75301666 -289.99065938 1206.91553704 -291.87207031 1208.09033203 C-300.17681405 1213.118878 -300.17681405 1213.118878 -305 1212 C-308.3412524 1210.42558787 -311.43284067 1208.51846602 -314.5625 1206.5625 C-316.53451096 1205.36352135 -318.50720277 1204.16566202 -320.48046875 1202.96875 C-321.53282715 1202.32550781 -322.58518555 1201.68226562 -323.66943359 1201.01953125 C-328.92024096 1197.8356375 -334.22208242 1194.74022047 -339.52462769 1191.64352417 C-341.38910559 1190.55425924 -343.25246431 1189.46310412 -345.11547852 1188.37133789 C-353.70397759 1183.33856133 -362.30136197 1178.32108915 -370.90185547 1173.30883789 C-378.77540974 1168.71865376 -386.6387568 1164.11122 -394.5 1159.5 C-403.43181027 1154.26104681 -412.3675106 1149.02893587 -421.3125 1143.8125 C-422.77284668 1142.9603894 -422.77284668 1142.9603894 -424.26269531 1142.09106445 C-429.11763224 1139.25928772 -433.97589396 1136.43345744 -438.83984375 1133.6171875 C-449.59160571 1127.38268052 -460.26822142 1121.0398413 -470.875 1114.5625 C-482.04071346 1107.74450816 -493.31375232 1101.13735676 -504.66796875 1094.63671875 C-509.96285237 1091.60466168 -515.22828531 1088.52503831 -520.48779297 1085.43212891 C-528.12404106 1080.94399898 -535.75965178 1076.51317186 -543.625 1072.4375 C-550.84562151 1068.69231758 -557.91112277 1064.7083696 -564.81305057 1060.40011877 C-569.58808377 1057.45162542 -574.31029237 1054.78813969 -579.48300359 1052.59201108 C-600.18373788 1043.76840573 -600.18373788 1043.76840573 -604.65242982 1034.61541247 C-607.07340022 1025.44427204 -606.71767369 1016.0927242 -606.36590302 1006.690467 C-606.23947616 1002.4447325 -606.28312459 998.20009268 -606.30506897 993.95300293 C-606.3202068 986.61206177 -606.23002711 979.2786495 -606.06617165 971.93960381 C-605.82945691 961.33024519 -605.75486488 950.72448981 -605.71851989 940.11277712 C-605.65520172 922.89416985 -605.46264849 905.67956902 -605.18774414 888.46313477 C-604.92114179 871.74914465 -604.71607793 855.0362465 -604.59301758 838.32055664 C-604.5853986 837.28853547 -604.57777962 836.25651431 -604.56992976 835.19321977 C-604.53208093 830.01535466 -604.49543406 824.83748188 -604.45938456 819.65960395 C-604.15922757 776.77029553 -603.64888395 733.88535545 -603 691 C-544.50000001 657.25000001 -544.50000001 657.25000001 -541.24951172 655.37475586 C-539.08442929 654.12564482 -536.91939018 652.87645871 -534.75439453 651.62719727 C-529.31384294 648.48797691 -523.87252784 645.35009437 -518.4296875 642.21484375 C-502.90802162 633.27158365 -487.42343655 624.26646305 -471.96044922 615.22216797 C-436.67555587 594.58532231 -436.67555587 594.58532231 -418.75 584.875 C-410.94924565 580.64795353 -403.26245351 576.27571213 -395.63671875 571.7421875 C-389.97521138 568.38062833 -384.26784588 565.09891392 -378.5625 561.8125 C-377.46204346 561.17828125 -376.36158691 560.5440625 -375.2277832 559.890625 C-370.67421544 557.2669481 -366.11979643 554.64475058 -361.56542969 552.02246094 C-344.85038674 542.39662169 -328.15448204 532.74796329 -311.6418457 522.77783203 C-307.20426509 520.10213254 -307.20426509 520.10213254 -305 519 C-305.00130151 518.27015282 -305.00260303 517.54030564 -305.00394398 516.78834188 C-305.07991016 473.54929544 -305.10910446 430.3104349 -305.07740569 387.07132646 C-305.07364169 381.88169831 -305.07026919 376.69206997 -305.06713867 371.50244141 C-305.06650885 370.46926256 -305.06587903 369.43608371 -305.06523012 368.37159641 C-305.05596087 351.63373827 -305.07842115 334.89606504 -305.11256976 318.15824561 C-305.14689426 300.98872942 -305.14720853 283.81945657 -305.11582941 266.64993346 C-305.09753592 256.05185761 -305.10589598 245.4544865 -305.14815276 234.85647626 C-305.1745753 227.5928951 -305.16801686 220.32981446 -305.13534261 213.0662605 C-305.11745824 208.87274492 -305.11428852 204.68055442 -305.15022469 200.4871254 C-305.18280233 196.64819487 -305.17399734 192.81167236 -305.13215785 188.97285219 C-305.12434319 187.58379039 -305.13176729 186.19454259 -305.15590347 184.80566852 C-305.32410686 174.4233417 -305.32410686 174.4233417 -302.0297879 170.88213086 C-299.7421967 169.33199003 -297.51410781 168.13628052 -295 167 C-293.98518555 166.38366699 -292.97037109 165.76733398 -291.92480469 165.13232422 C-291.01633789 164.6117041 -290.10787109 164.09108398 -289.171875 163.5546875 C-287.61545288 162.65955444 -287.61545288 162.65955444 -286.02758789 161.74633789 C-284.94598389 161.12879639 -283.86437988 160.51125488 -282.75 159.875 C-281.03184748 158.89076316 -279.31369546 157.90652543 -277.59559631 156.92219543 C-275.86029035 155.92854215 -274.12423785 154.93619299 -272.38818359 153.94384766 C-269.16383325 152.0939934 -265.94948501 150.22802983 -262.73828125 148.35546875 C-261.29727051 147.51943115 -261.29727051 147.51943115 -259.82714844 146.66650391 C-258.01907653 145.61749009 -256.21361708 144.56395716 -254.41113281 143.50537109 C-253.60643555 143.0408252 -252.80173828 142.5762793 -251.97265625 142.09765625 C-251.27406494 141.69039307 -250.57547363 141.28312988 -249.85571289 140.86352539 C-248 140 -248 140 -245 140 C-244.67 139.34 -244.34 138.68 -244 138 C-242 137.33333333 -240 136.66666667 -238 136 C-237.67 135.34 -237.34 134.68 -237 134 C-235.2039391 132.85593381 -233.35937532 131.78800079 -231.5 130.75 C-230.8918042 130.40775391 -230.2836084 130.06550781 -229.65698242 129.71289062 C-226.55174453 127.96870383 -223.43661844 126.24239769 -220.32275391 124.51367188 C-203.71013135 115.28600966 -187.31477221 105.74373835 -171 96 C-157.2378893 87.78769377 -143.45690798 79.6287795 -129.48022461 71.78564453 C-122.71753671 67.9865656 -116.0049735 64.10883248 -109.3125 60.1875 C-100.5737947 55.06779664 -91.79985623 50.01353402 -83 45 C-73.28806225 39.46566943 -63.60836844 33.87945189 -53.96166992 28.23193359 C-48.71288772 25.16069322 -43.45553585 22.10556686 -38.18359375 19.07421875 C-37.04390137 18.4188916 -35.90420898 17.76356445 -34.72998047 17.08837891 C-32.48107092 15.79635643 -30.2314159 14.50563055 -27.98095703 13.21630859 C-23.50102891 10.6406066 -19.03536301 8.06547657 -14.68359375 5.27734375 C-14.08442139 4.89368652 -13.48524902 4.5100293 -12.86791992 4.11474609 C-11.40771609 3.16507377 -9.96079699 2.19505055 -8.515625 1.22265625 C-5.3857619 -0.29853498 -3.46139057 -0.27072031 0 0 Z M-7.29296875 349.46484375 C-8.60188576 350.27189798 -9.89925019 351.09784964 -11.1875 351.9375 C-12.71226572 352.8822707 -14.23839804 353.82483811 -15.765625 354.765625 C-17.01762695 355.54583008 -17.01762695 355.54583008 -18.29492188 356.34179688 C-23.27982993 359.39752752 -28.36516403 362.28010707 -33.4375 365.1875 C-35.68644022 366.48265227 -37.93513492 367.77823094 -40.18359375 369.07421875 C-41.31265137 369.72438965 -42.44170898 370.37456055 -43.60498047 371.04443359 C-49.0716998 374.19332054 -54.53574887 377.34683264 -60 380.5 C-62.16665311 381.7500235 -64.33331979 383.00002347 -66.5 384.25 C-67.5725 384.86875 -68.645 385.4875 -69.75 386.125 C-79.5 391.75 -79.5 391.75 -82.74975586 393.62475586 C-84.91735556 394.87536303 -87.08483596 396.12617699 -89.25219727 397.37719727 C-94.65363154 400.49461038 -100.05706138 403.60845403 -105.46484375 406.71484375 C-117.66011038 413.7256492 -129.79765894 420.8241265 -141.88769531 428.01489258 C-150.69254623 433.24428245 -159.54594484 438.38466764 -168.42602539 443.48510742 C-173.73057423 446.53279573 -179.02538791 449.59462487 -184.296875 452.69921875 C-194.02313355 458.42542768 -203.7641451 464.00777865 -213.79443359 469.18408203 C-223.32883935 474.14437413 -232.53569525 479.66820391 -241.79394531 485.12060547 C-247.32352803 488.36205596 -252.88163093 491.55388829 -258.4375 494.75 C-272.17627643 502.58720272 -272.17627643 502.58720272 -285.73986882 510.72091776 C-288 512 -288 512 -290.95716268 513.27205509 C-297.37311231 516.22904672 -297.37311231 516.22904672 -301.13255537 521.89816773 C-301.5870348 525.60252375 -301.65244756 529.15085597 -301.5978241 532.8830719 C-301.6195433 534.30640215 -301.64644692 535.72966109 -301.67806989 537.15280575 C-301.74943221 541.05578492 -301.74603141 544.95564036 -301.72994554 548.85910714 C-301.7254342 553.07175042 -301.78966871 557.2834405 -301.84455872 561.49565125 C-301.94032637 569.74598825 -301.96964523 577.99527255 -301.97288223 586.24611712 C-301.9758536 592.95554983 -301.99816939 599.66464063 -302.03411293 606.37397575 C-302.13403521 625.40866779 -302.18477763 644.44254646 -302.17095026 663.47750128 C-302.17020806 664.5033658 -302.16946586 665.52923032 -302.16870117 666.58618164 C-302.16794829 667.61330349 -302.16719542 668.64042535 -302.16641972 669.69867211 C-302.15719231 686.33490808 -302.26405666 702.96809029 -302.42414042 719.60348058 C-302.58733043 736.69656525 -302.66446501 753.78816819 -302.6520794 770.88205093 C-302.64685395 780.47461874 -302.67657317 790.06407502 -302.79857445 799.65594673 C-302.90178386 807.82615074 -302.92451958 815.99177399 -302.84469005 824.16232086 C-302.80623559 828.32920163 -302.80402136 832.48736714 -302.90322495 836.65343857 C-303.83371196 853.1550609 -303.83371196 853.1550609 -297.72735429 867.68610454 C-292.26196586 872.23868659 -286.26666366 875.21363267 -279.7035042 877.86736 C-276.09942489 879.37729825 -272.97125695 881.29645758 -269.6796875 883.39453125 C-267.74594846 884.53581645 -265.81112255 885.67526297 -263.875 886.8125 C-262.37646484 887.70678711 -262.37646484 887.70678711 -260.84765625 888.61914062 C-259.88472656 889.18439453 -258.92179687 889.74964844 -257.9296875 890.33203125 C-257.09679199 890.82421143 -256.26389648 891.3163916 -255.40576172 891.82348633 C-253.01889349 893.1185058 -253.01889349 893.1185058 -250.25439453 893.54174805 C-249.51044434 893.69297119 -248.76649414 893.84419434 -248 894 C-247.67 894.66 -247.34 895.32 -247 896 C-244.85156483 897.23112577 -242.70481666 898.37836764 -240.5 899.5 C-234.97275106 902.38071323 -229.54466059 905.37668459 -224.1875 908.5625 C-217.00968909 912.8246652 -209.79602301 917.02053644 -202.5625 921.1875 C-201.45535645 921.82574707 -200.34821289 922.46399414 -199.20751953 923.12158203 C-193.64060405 926.32978429 -188.07135145 929.53388316 -182.5 932.734375 C-170.27025273 939.76599279 -158.09490809 946.88103291 -145.96728516 954.08740234 C-127.16610901 965.25612184 -108.23131743 976.19360257 -89.28222656 987.10888672 C-83.85340058 990.23680148 -78.42680719 993.36858448 -73 996.5 C-70.83334417 997.75001879 -68.6666775 999.00001878 -66.5 1000.25 C-53.5 1007.75 -53.5 1007.75 -50.24511719 1009.62792969 C-48.09485681 1010.86838986 -45.94446776 1012.10862703 -43.79394531 1013.34863281 C-38.73102491 1016.26830662 -33.66941668 1019.19018475 -28.61242676 1022.12011719 C-26.23187827 1023.49918031 -23.85058694 1024.87695785 -21.46923828 1026.25463867 C-19.7951735 1027.22384658 -18.12218088 1028.19490565 -16.44921875 1029.16601562 C-14.91974609 1030.05063477 -14.91974609 1030.05063477 -13.359375 1030.953125 C-12.02084473 1031.72897949 -12.02084473 1031.72897949 -10.65527344 1032.52050781 C-9.7790332 1033.00874023 -8.90279297 1033.49697266 -8 1034 C-7.01902344 1034.61311035 -6.03804687 1035.2262207 -5.02734375 1035.85791016 C-2.05062533 1037.33636963 -2.05062533 1037.33636963 0.83886719 1036.10986328 C2.30308105 1035.22403564 2.30308105 1035.22403564 3.796875 1034.3203125 C4.90691895 1033.66603271 6.01696289 1033.01175293 7.16064453 1032.33764648 C8.35726353 1031.60036892 9.55371085 1030.86281265 10.75 1030.125 C12.00098601 1029.37784749 13.25345326 1028.63316996 14.50732422 1027.89086914 C17.08874158 1026.35919032 19.66264101 1024.8159181 22.23144531 1023.26318359 C27.81122307 1019.89911011 33.47175113 1016.67596197 39.125 1013.4375 C41.27397965 1012.19755372 43.42241696 1010.95666703 45.5703125 1009.71484375 C52.04510022 1005.97348344 58.52236343 1002.23642517 65 998.5 C67.1666775 997.25001878 69.33334417 996.00001879 71.5 994.75 C84.5 987.25 84.5 987.25 87.75146484 985.37426758 C89.91337884 984.12693452 92.07516317 982.8793767 94.23681641 981.6315918 C99.72514585 978.46391168 105.21582533 975.30043239 110.7109375 972.14453125 C120.52102609 966.50602239 130.31547497 960.85213559 140 955 C150.78840568 948.48081474 161.71429844 942.20531872 172.64453125 935.92773438 C178.14121409 932.76986129 183.63349318 929.60436356 189.125 926.4375 C190.19709717 925.81931396 191.26919434 925.20112793 192.3737793 924.56420898 C199.74023729 920.31306653 207.09272306 916.03847802 214.4375 911.75 C215.42411621 911.17435303 216.41073242 910.59870605 217.42724609 910.00561523 C222.05456891 907.30537908 226.67967642 904.60148852 231.30078125 901.890625 C232.95043622 900.92693847 234.60017126 899.963389 236.25 899 C236.96341553 898.57944336 237.67683105 898.15888672 238.41186523 897.72558594 C242.47260764 895.35992192 246.5879585 893.18948832 250.8046875 891.11328125 C256.9837552 888.05597073 262.93397859 884.68107041 268.875 881.1875 C269.84824219 880.62224609 270.82148437 880.05699219 271.82421875 879.47460938 C273.78300733 878.32834581 275.7210865 877.14579292 277.6343708 875.92508984 C281 874 281 874 284.60047722 872.80956745 C289.16900729 870.92688303 292.33222635 869.24822118 295 865 C297.70810938 855.42681404 296.99911522 844.83657933 296.91809964 834.96398652 C296.8987292 830.76095424 296.95988164 826.55896098 297.01028442 822.35629272 C297.09558706 814.12938467 297.10451459 805.90410384 297.08465756 797.67684253 C297.06942812 790.9879096 297.07934784 784.29946422 297.10705185 777.61057472 C297.11092945 776.65775918 297.11480705 775.70494363 297.11880215 774.72325489 C297.12671232 772.78745238 297.13464555 770.85164996 297.14260159 768.91584764 C297.21353117 750.76984119 297.1940425 732.6247581 297.14669178 714.47873179 C297.10615737 697.89001576 297.17703335 681.30398101 297.30095305 664.71574821 C297.42731729 647.67003405 297.4794755 630.62557979 297.45115459 613.57939845 C297.4365318 604.01416701 297.45084173 594.45112576 297.5425148 584.88626671 C297.61971377 576.74224758 297.62641122 568.60184123 297.54321231 560.45781978 C297.50267568 556.30418631 297.49374437 552.15708958 297.57252502 548.00385857 C298.51089017 531.8851273 298.51089017 531.8851273 293.02017736 517.51512361 C288.30606738 513.4772499 283.13813462 511.01484371 277.34333301 508.89483988 C274.19843732 507.69391023 271.55187138 506.0898678 268.7109375 504.29296875 C266.93314774 503.25634296 265.15450985 502.22117023 263.375 501.1875 C261.89930542 500.32838013 261.89930542 500.32838013 260.39379883 499.4519043 C250.6644298 493.79322789 240.91444983 488.17025996 231.16015625 482.5546875 C227.28544667 480.32253745 223.41763544 478.07943755 219.55859375 475.8203125 C218.71917236 475.33006592 217.87975098 474.83981934 217.01489258 474.3347168 C215.50379145 473.45127296 213.99429684 472.56507039 212.48706055 471.67504883 C208.44804035 469.31709062 204.35265077 467.16017483 200.15625 465.09375 C194.23729277 462.16504586 188.55348262 458.92941369 182.875 455.5625 C180.78033937 454.33006361 178.68527236 453.09831769 176.58984375 451.8671875 C174.97505127 450.91730957 174.97505127 450.91730957 173.32763672 449.94824219 C167.71597328 446.66276352 162.07529302 443.42786021 156.4375 440.1875 C149.19003684 436.01649163 141.96790703 431.81566264 134.81787109 427.47998047 C127.66586397 423.162574 120.40869945 419.02550314 113.16796875 414.859375 C105.76373117 410.59812614 98.37505072 406.31154928 91 402 C79.45288312 395.25268576 67.87097739 388.56660548 56.28222656 381.89111328 C51.93393042 379.38576503 47.58707659 376.87792178 43.24047852 374.36962891 C41.09282169 373.13051522 38.94487582 371.89190236 36.79663086 370.65380859 C31.72196043 367.72855998 26.6499409 364.79897413 21.5866394 361.85409546 C19.19684332 360.4645137 16.80563164 359.07737828 14.41430664 357.69042969 C12.72859411 356.71136747 11.04493413 355.72877394 9.36132812 354.74609375 C8.33845703 354.153125 7.31558594 353.56015625 6.26171875 352.94921875 C5.36412842 352.42674561 4.46653809 351.90427246 3.54174805 351.3659668 C-1.69682764 348.22902956 -1.69682764 348.22902956 -7.29296875 349.46484375 Z " fill="#022B91" transform="translate(603,0)"/>
<path d="M0 0 C2.21875 1.12890625 2.21875 1.12890625 4.5 2.5625 C5.80735107 3.37328003 5.80735107 3.37328003 7.14111328 4.20043945 C8.0845459 4.79429443 9.02797852 5.38814941 10 6 C12.07939401 7.28731542 14.16018928 8.57236943 16.2421875 9.85546875 C17.34272461 10.53399902 18.44326172 11.2125293 19.57714844 11.91162109 C25.37544871 15.46439328 31.25243179 18.88447526 37.125 22.3125 C38.35116927 23.02902934 39.57732478 23.74558223 40.8034668 24.4621582 C43.28734227 25.91331507 45.7717403 27.36357323 48.25634766 28.81347656 C53.83709286 32.07135233 59.40934762 35.34370369 64.98275757 38.61410522 C70.32032419 41.74531978 75.66035036 44.87233957 81 48 C82.1034375 48.64662598 83.206875 49.29325195 84.34375 49.95947266 C94.38241977 55.83999751 104.41988708 61.71669117 114.57446289 67.39526367 C130.26596132 76.17510171 145.90639348 85.05533562 161.29223633 94.36181641 C168.47082702 98.69973931 175.69880741 102.9510093 182.9375 107.1875 C183.85847977 107.726595 183.85847977 107.726595 184.79806519 108.27658081 C187.941684 110.11646883 191.08572928 111.95562651 194.22998047 113.79443359 C199.72174718 117.00656563 205.20973977 120.2251339 210.69793701 123.44335938 C213.10530902 124.85492328 215.51289268 126.26612599 217.92047119 127.67733765 C222.80257463 130.53901908 227.68437261 133.40122008 232.56561279 136.26437378 C235.64780659 138.07225636 238.73014828 139.8798867 241.8125 141.6875 C242.7147934 142.21670044 242.7147934 142.21670044 243.63531494 142.7565918 C249.96185979 146.46682253 256.29110057 150.17230226 262.62890625 153.86328125 C263.68424561 154.47792236 264.73958496 155.09256348 265.8269043 155.72583008 C267.75880841 156.85031123 269.6912032 157.97395016 271.62426758 159.09643555 C273.38088469 160.11866223 275.11974302 161.17218013 276.83701229 162.25921154 C279.99872425 164.14116627 279.99872425 164.14116627 283.76417637 165.14410114 C288.4938016 166.77424688 292.15058032 168.78208731 295 173 C297.90947981 182.58575504 297.16691433 193.32960855 297.09280145 203.26032436 C297.07735294 207.49624407 297.14808058 211.73087884 297.2071991 215.96629333 C297.3085044 224.25803121 297.32761479 232.54799118 297.31523465 240.8402647 C297.30595282 247.58308645 297.32265517 254.32536068 297.35768318 261.06809425 C297.36759512 263.01235622 297.37750588 264.95661818 297.38741547 266.90088016 C297.39235581 267.86869113 297.39729615 268.8365021 297.4023862 269.83364067 C297.49168315 288.12897671 297.48209747 306.423296 297.44332368 324.71874086 C297.4111035 341.43908155 297.50727683 358.15581565 297.66369974 374.87536242 C297.82321697 392.05900569 297.89329584 409.24093127 297.8681789 426.42532569 C297.85572514 436.06706344 297.87866377 445.70557173 297.99600029 455.34668541 C298.09502093 463.55732481 298.10956427 471.7628878 298.01673102 479.97368684 C297.97169494 484.16101926 297.96439352 488.33897594 298.06280518 492.52560425 C298.59889617 516.91856568 298.59889617 516.91856568 292.62346196 523.69518304 C286.88608378 528.28012359 280.62288611 531.25071386 273.80318558 533.88404524 C270.14783388 535.33924933 266.93908251 537.18827174 263.57421875 539.21875 C261.61324759 540.31477252 259.65108679 541.40867045 257.6875 542.5 C256.19959961 543.33144531 256.19959961 543.33144531 254.68164062 544.1796875 C251.79106597 545.79250322 248.89632819 547.39754367 246 549 C244.99485352 549.55913086 243.98970703 550.11826172 242.95410156 550.69433594 C241.97795898 551.23348633 241.00181641 551.77263672 239.99609375 552.328125 C239.12267334 552.8118457 238.24925293 553.29556641 237.34936523 553.79394531 C234.65105014 555.1791346 231.88752652 556.08814952 229 557 C228.67 557.66 228.34 558.32 228 559 C226.01071831 560.14023542 223.98057941 561.20922865 221.9375 562.25 C214.99845045 565.85355907 208.23968075 569.72496322 201.5 573.6875 C193.3146115 578.49763091 185.09217054 583.22901077 176.8125 587.875 C171.01590148 591.13047895 165.25327469 594.39822446 159.625 597.9375 C152.54111523 602.37772738 145.21969333 606.38272033 137.91455078 610.44506836 C130.5578223 614.54462349 123.2613317 618.73399011 116 623 C106.85101966 628.37222245 97.6259625 633.5907687 88.35546875 638.75 C81.18646305 642.74964452 74.07907237 646.84348044 67 651 C58.885807 655.76429681 50.72187414 660.42405372 42.5 665 C33.93028097 669.77202787 25.41020036 674.62009145 16.9375 679.5625 C15.95652344 680.13419922 14.97554687 680.70589844 13.96484375 681.29492188 C12.57265625 682.10993164 12.57265625 682.10993164 11.15234375 682.94140625 C10.27175293 683.45461426 9.39116211 683.96782227 8.48388672 684.49658203 C6.87909839 685.46790958 5.29936167 686.48247915 3.75439453 687.54638672 C3.0736084 688.01447754 2.39282227 688.48256836 1.69140625 688.96484375 C1.11720947 689.38241943 0.5430127 689.79999512 -0.04858398 690.23022461 C-2.98799427 691.38973426 -4.97889532 690.78281755 -8 690 C-10.62353516 688.76342773 -10.62353516 688.76342773 -13.2890625 687.18359375 C-14.2982373 686.59263916 -15.30741211 686.00168457 -16.34716797 685.39282227 C-17.42885254 684.74756592 -18.51053711 684.10230957 -19.625 683.4375 C-20.77817308 682.75925361 -21.93199594 682.08211093 -23.08642578 681.40600586 C-24.89268382 680.34788747 -26.69846672 679.28902769 -28.50228882 678.22676086 C-34.92532494 674.44451464 -41.39800954 670.75158434 -47.875 667.0625 C-49.63688983 666.05714601 -51.39851626 665.0513316 -53.16012573 664.04548645 C-54.92919465 663.03543764 -56.69846593 662.02574408 -58.46777344 661.01611328 C-63.73076528 658.01250497 -68.99172116 655.00533424 -74.25283813 651.9984436 C-75.99942822 651.00032675 -77.74615331 650.00244656 -79.49291992 649.00463867 C-84.77244597 645.98864263 -90.05128177 642.97146693 -95.32693481 639.94869995 C-98.28003016 638.2567216 -101.23362989 636.56562536 -104.1875 634.875 C-104.76850464 634.54244202 -105.34950928 634.20988403 -105.94812012 633.86724854 C-114.18785452 629.15329929 -122.45812528 624.49660485 -130.75 619.875 C-145.45889979 611.67018637 -160.04152522 603.2431266 -174.4375 594.5 C-181.89420603 589.9764704 -189.52467325 585.7670929 -197.14550781 581.52807617 C-205.90267863 576.64548567 -214.57279062 571.62415768 -223.20874023 566.53051758 C-228.82028275 563.21193824 -228.82028275 563.21193824 -234.61328125 560.23046875 C-237 559 -237 559 -238 557 C-239.61654598 556.57266208 -241.23316579 556.14560205 -242.85009766 555.71972656 C-247.2600503 554.24339901 -251.18412771 551.70555443 -255.1875 549.375 C-256.16912109 548.81176025 -257.15074219 548.24852051 -258.16210938 547.66821289 C-260.29647256 546.44308443 -262.42905216 545.2148447 -264.56005859 543.98388672 C-268.19694089 541.88642004 -271.84125434 539.80241052 -275.48828125 537.72265625 C-276.75041309 537.00277778 -278.01253877 536.28288851 -279.2746582 535.56298828 C-279.89329742 535.21012756 -280.51193665 534.85726685 -281.14932251 534.49371338 C-284.10082712 532.80923909 -287.05041491 531.12142716 -290 529.43359375 C-291.051875 528.83659668 -292.10375 528.23959961 -293.1875 527.62451172 C-294.87216313 526.65144328 -296.54418484 525.65514715 -298.1875 524.61376953 C-301.5336003 522.4666954 -301.5336003 522.4666954 -305.39526367 522.25488281 C-308.10928108 523.03126121 -310.22986756 524.04556215 -312.67578125 525.44921875 C-313.57466064 525.96097656 -314.47354004 526.47273438 -315.3996582 527 C-316.84151489 527.8353125 -316.84151489 527.8353125 -318.3125 528.6875 C-319.31563232 529.26113281 -320.31876465 529.83476563 -321.35229492 530.42578125 C-326.75195077 533.52158952 -332.12877496 536.65595815 -337.5 539.80078125 C-338.55662842 540.41928955 -339.61325684 541.03779785 -340.7019043 541.67504883 C-342.72128303 542.85979539 -344.73850762 544.04822419 -346.75317383 545.2409668 C-363.33108289 555 -363.33108289 555 -367 555 C-367.33 555.66 -367.66 556.32 -368 557 C-369.7960609 558.14406619 -371.64062468 559.21199921 -373.5 560.25 C-374.10602051 560.5907959 -374.71204102 560.9315918 -375.33642578 561.28271484 C-377.55427736 562.52787164 -379.77693655 563.76417274 -382 565 C-401.7959367 576.02926606 -421.46989552 587.23155495 -440.875 598.9375 C-451.71080798 605.47395663 -462.68004946 611.77459444 -473.65332031 618.07666016 C-479.10638623 621.21054207 -484.55291228 624.35574277 -490 627.5 C-492.16663414 628.75005639 -494.33330083 630.00005634 -496.5 631.25 C-498.10875 632.178125 -498.10875 632.178125 -499.75 633.125 C-509.5 638.75 -509.5 638.75 -512.75048828 640.62524414 C-514.91557071 641.87435518 -517.08060982 643.12354129 -519.24560547 644.37280273 C-524.68615706 647.51202309 -530.12747216 650.64990563 -535.5703125 653.78515625 C-546.1428854 659.87673239 -556.70738332 665.98170088 -567.25 672.125 C-568.22453125 672.69114014 -569.1990625 673.25728027 -570.203125 673.84057617 C-575.22666513 676.76636967 -580.22007192 679.73257514 -585.1796875 682.765625 C-586.67773926 683.67417236 -586.67773926 683.67417236 -588.20605469 684.60107422 C-590.10154379 685.75301666 -591.99065938 686.91553704 -593.87207031 688.09033203 C-602.17681405 693.118878 -602.17681405 693.118878 -607 692 C-610.3412524 690.42558787 -613.43284067 688.51846602 -616.5625 686.5625 C-618.53451096 685.36352135 -620.50720277 684.16566202 -622.48046875 682.96875 C-623.53282715 682.32550781 -624.58518555 681.68226563 -625.66943359 681.01953125 C-630.92024096 677.8356375 -636.22208242 674.74022047 -641.52462769 671.64352417 C-643.38910559 670.55425924 -645.25246431 669.46310412 -647.11547852 668.37133789 C-655.70397759 663.33856133 -664.30136197 658.32108915 -672.90185547 653.30883789 C-680.77540974 648.71865376 -688.6387568 644.11122 -696.5 639.5 C-705.43181027 634.26104681 -714.3675106 629.02893587 -723.3125 623.8125 C-724.77284668 622.9603894 -724.77284668 622.9603894 -726.26269531 622.09106445 C-731.11763224 619.25928772 -735.97589396 616.43345744 -740.83984375 613.6171875 C-751.59160571 607.38268052 -762.26822142 601.0398413 -772.875 594.5625 C-784.04071346 587.74450816 -795.31375232 581.13735676 -806.66796875 574.63671875 C-811.96285237 571.60466168 -817.22828531 568.52503831 -822.48779297 565.43212891 C-830.12404106 560.94399898 -837.75965178 556.51317186 -845.625 552.4375 C-853.86095806 548.16568416 -861.81148323 543.45845276 -869.7734375 538.69921875 C-874.44323382 535.9110169 -879.14090438 533.17525723 -883.8515625 530.45703125 C-885.86283098 529.29265268 -887.87377574 528.12771685 -889.88464355 526.96264648 C-891.2094405 526.19709992 -892.53569396 525.43406826 -893.86340332 524.67358398 C-895.72276852 523.60805121 -897.5766666 522.53354831 -899.4296875 521.45703125 C-900.50460449 520.83803955 -901.57952148 520.21904785 -902.68701172 519.58129883 C-903.45029785 519.05947021 -904.21358398 518.5376416 -905 518 C-905 517.34 -905 516.68 -905 516 C-889.18847656 506.96484375 -889.18847656 506.96484375 -873.37695312 497.9296875 C-872.79822449 497.59898254 -872.21949585 497.26827759 -871.62322998 496.92755127 C-869.89434534 495.93962589 -868.16543441 494.95174649 -866.43652344 493.96386719 C-864.1323264 492.64708962 -861.82826355 491.33008054 -859.52441406 490.01269531 C-854.20093233 486.96903023 -848.87607379 483.92788677 -843.54499817 480.89753723 C-840.52917371 479.18313987 -837.51441125 477.46688075 -834.5 475.75 C-833.91658844 475.41787506 -833.33317688 475.08575012 -832.73208618 474.74356079 C-824.1733801 469.86689244 -815.68576958 464.88610567 -807.30078125 459.71582031 C-803.61482002 457.46382733 -800.04732702 455.55852428 -796.03588867 453.9284668 C-790.93967966 451.60434126 -786.15669216 448.61550748 -781.3125 445.8125 C-780.0685926 445.09659981 -778.82444728 444.38111289 -777.58007812 443.66601562 C-774.99858974 442.18209588 -772.41812751 440.69641474 -769.83837891 439.20947266 C-763.90177693 435.78965046 -757.95007207 432.39631544 -752 429 C-750.2529654 428.00182566 -748.50607419 427.00340073 -746.75920105 426.00494385 C-742.07321872 423.32658644 -737.38651807 420.64949302 -732.69869995 417.97434998 C-716.43910048 408.69563242 -700.20882895 399.36718386 -684 390 C-660.77699606 376.57928044 -660.77699606 376.57928044 -650.984375 370.9921875 C-650.39789688 370.65740387 -649.81141876 370.32262024 -649.20716858 369.97769165 C-646.26251729 368.2973355 -643.31617865 366.62005217 -640.36694336 364.94775391 C-634.57618943 361.65799392 -628.83025984 358.31151383 -623.14453125 354.84375 C-621.51185303 353.85773804 -621.51185303 353.85773804 -619.84619141 352.85180664 C-617.79574161 351.60914341 -615.75437592 350.3513185 -613.72412109 349.07592773 C-609.77776168 346.69582094 -607.03941169 345.05624522 -602.390625 344.8046875 C-597.87857659 346.39534051 -594.08996087 348.62916816 -590.0625 351.1875 C-588.29128203 352.28013446 -586.51910322 353.37121249 -584.74609375 354.4609375 C-583.81522949 355.03682617 -582.88436523 355.61271484 -581.92529297 356.20605469 C-576.86503755 359.30927258 -571.74917201 362.31632911 -566.625 365.3125 C-565.59511963 365.91473389 -564.56523926 366.51696777 -563.50415039 367.13745117 C-558.40485943 370.09685743 -553.30869672 372.9360674 -548 375.5 C-538.4333517 380.12156923 -529.39442174 385.70457567 -520.24707031 391.09423828 C-514.89014344 394.2383113 -509.50771212 397.33784642 -504.125 400.4375 C-503.04500732 401.06019775 -501.96501465 401.68289551 -500.85229492 402.32446289 C-495.41307271 405.46012863 -489.97136365 408.59142187 -484.52734375 411.71875 C-472.28842252 418.75548244 -460.1039368 425.87566795 -447.96728516 433.08740234 C-429.16610901 444.25612184 -410.23131743 455.19360257 -391.28222656 466.10888672 C-385.85340058 469.23680148 -380.42680719 472.36858448 -375 475.5 C-372.83334417 476.75001879 -370.6666775 478.00001878 -368.5 479.25 C-355.5 486.75 -355.5 486.75 -352.24511719 488.62792969 C-350.09485681 489.86838986 -347.94446776 491.10862703 -345.79394531 492.34863281 C-340.73102491 495.26830662 -335.66941668 498.19018475 -330.61242676 501.12011719 C-328.23187827 502.49918031 -325.85058694 503.87695785 -323.46923828 505.25463867 C-321.7951735 506.22384658 -320.12218088 507.19490565 -318.44921875 508.16601562 C-317.42957031 508.75576172 -316.40992188 509.34550781 -315.359375 509.953125 C-314.46702148 510.47036133 -313.57466797 510.98759766 -312.65527344 511.52050781 C-311.7790332 512.00874023 -310.90279297 512.49697266 -310 513 C-309.01902344 513.61311035 -308.03804687 514.2262207 -307.02734375 514.85791016 C-304.05062533 516.33636963 -304.05062533 516.33636963 -301.16113281 515.10986328 C-300.18499023 514.51931152 -299.20884766 513.92875977 -298.203125 513.3203125 C-297.09308105 512.66603271 -295.98303711 512.01175293 -294.83935547 511.33764648 C-293.64273647 510.60036892 -292.44628915 509.86281265 -291.25 509.125 C-289.99901399 508.37784749 -288.74654674 507.63316996 -287.49267578 506.89086914 C-284.91125842 505.35919032 -282.33735899 503.8159181 -279.76855469 502.26318359 C-274.18877693 498.89911011 -268.52824887 495.67596197 -262.875 492.4375 C-260.72602035 491.19755372 -258.57758304 489.95666703 -256.4296875 488.71484375 C-249.95489978 484.97348344 -243.47763657 481.23642517 -237 477.5 C-234.8333225 476.25001878 -232.66665583 475.00001879 -230.5 473.75 C-217.5 466.25 -217.5 466.25 -214.24853516 464.37426758 C-212.08662116 463.12693452 -209.92483683 461.8793767 -207.76318359 460.6315918 C-202.27485415 457.46391168 -196.78417467 454.30043239 -191.2890625 451.14453125 C-181.47897391 445.50602239 -171.68452503 439.85213559 -162 434 C-151.21159432 427.48081474 -140.28570156 421.20531872 -129.35546875 414.92773438 C-123.85878591 411.76986129 -118.36650682 408.60436356 -112.875 405.4375 C-111.80290283 404.81931396 -110.73080566 404.20112793 -109.6262207 403.56420898 C-102.25976271 399.31306653 -94.90727694 395.03847802 -87.5625 390.75 C-86.57588379 390.17435303 -85.58926758 389.59870605 -84.57275391 389.00561523 C-79.94543109 386.30537908 -75.32032358 383.60148852 -70.69921875 380.890625 C-69.04956378 379.92693847 -67.39982874 378.963389 -65.75 378 C-65.03658447 377.57944336 -64.32316895 377.15888672 -63.58813477 376.72558594 C-59.52876066 374.36071905 -55.41501245 372.19171801 -51.19921875 370.1171875 C-44.99228223 367.04658353 -39.02504701 363.64247378 -33.0625 360.125 C-32.08087891 359.55136719 -31.09925781 358.97773437 -30.08789062 358.38671875 C-28.1439611 357.24651711 -26.20924411 356.09040919 -24.28575248 354.91605759 C-21 353 -21 353 -17.6170705 351.38951492 C-10.88722394 348.06242638 -10.88722394 348.06242638 -6.80282152 342.00353241 C-6.33940126 338.26133836 -6.30162309 334.71038115 -6.39872742 330.94042969 C-6.38891802 329.51042044 -6.37340046 328.08044096 -6.35269386 326.65054798 C-6.31239464 322.73351015 -6.35275749 318.8208646 -6.40660393 314.90414357 C-6.45049291 310.67643803 -6.41916598 306.44920257 -6.39706421 302.22142029 C-6.36904709 294.90096486 -6.388477 287.58187494 -6.44031334 280.26156616 C-6.51518879 269.67795715 -6.51823013 259.0952817 -6.50384996 248.51146209 C-6.48246445 231.33957076 -6.51901451 214.1683123 -6.59204102 196.99658203 C-6.66284688 180.31782357 -6.70634082 163.63936192 -6.71313477 146.96044922 C-6.71356318 145.93203753 -6.71399159 144.90362585 -6.71443298 143.84405017 C-6.71641383 138.68471074 -6.71785807 133.52537132 -6.71903551 128.36603165 C-6.72949464 85.57704093 -6.83399509 42.78865097 -7 0 C-4.26200477 -1.36899761 -2.92204161 -0.7949672 0 0 Z " fill="#022B91" transform="translate(905,520)"/>
<path d="M0 0 C3.10642813 1.54253583 6.01144431 3.32880499 8.9375 5.1875 C10.70871797 6.28013446 12.48089678 7.37121249 14.25390625 8.4609375 C15.18477051 9.03682617 16.11563477 9.61271484 17.07470703 10.20605469 C22.13496245 13.30927258 27.25082799 16.31632911 32.375 19.3125 C33.40488037 19.91473389 34.43476074 20.51696777 35.49584961 21.13745117 C40.59514057 24.09685743 45.69130328 26.9360674 51 29.5 C60.5666483 34.12156923 69.60557826 39.70457567 78.75292969 45.09423828 C84.10985656 48.2383113 89.49228788 51.33784642 94.875 54.4375 C95.95499268 55.06019775 97.03498535 55.68289551 98.14770508 56.32446289 C103.58692729 59.46012863 109.02863635 62.59142187 114.47265625 65.71875 C126.71157748 72.75548244 138.8960632 79.87566795 151.03271484 87.08740234 C169.83389099 98.25612184 188.76868257 109.19360257 207.71777344 120.10888672 C213.14659942 123.23680148 218.57319281 126.36858448 224 129.5 C226.16665583 130.75001879 228.3333225 132.00001878 230.5 133.25 C234.83333333 135.75 239.16666667 138.25 243.5 140.75 C244.57411133 141.36963623 245.64822266 141.98927246 246.75488281 142.62768555 C248.90542543 143.86847033 251.05581792 145.10951535 253.20605469 146.35083008 C258.26377813 149.27019474 263.32294493 152.18696209 268.38757324 155.09432983 C270.76923502 156.46174766 273.1500302 157.83067039 275.53076172 159.19970703 C277.20326021 160.16064553 278.87700336 161.11941672 280.55078125 162.078125 C294.69423142 170.21373793 294.69423142 170.21373793 295.875 173.25 C295.936875 174.11625 295.936875 174.11625 296 175 C295.09121094 175.35449219 294.18242188 175.70898438 293.24609375 176.07421875 C287.59367292 178.5019427 282.36585081 181.7141294 277.0625 184.8125 C275.92965576 185.46887451 274.79681152 186.12524902 273.62963867 186.80151367 C267.80183234 190.1797866 261.99446352 193.59085088 256.203125 197.03125 C254.59038696 197.98487427 254.59038696 197.98487427 252.94506836 198.95776367 C250.90264327 200.16704614 248.8641765 201.38304682 246.83032227 202.60668945 C241.89262477 205.52779235 237.54291896 207.58239285 232 209 C231.67 209.66 231.34 210.32 231 211 C229.2039391 212.14406619 227.35937532 213.21199921 225.5 214.25 C224.89397949 214.5907959 224.28795898 214.9315918 223.66357422 215.28271484 C221.44572264 216.52787164 219.22306345 217.76417274 217 219 C197.2040633 230.02926606 177.53010448 241.23155495 158.125 252.9375 C147.28919202 259.47395663 136.31995054 265.77459444 125.34667969 272.07666016 C119.89361377 275.21054207 114.44708772 278.35574277 109 281.5 C106.83336586 282.75005639 104.66669917 284.00005634 102.5 285.25 C101.4275 285.86875 100.355 286.4875 99.25 287.125 C89.5 292.75 89.5 292.75 86.24951172 294.62524414 C84.08442929 295.87435518 81.91939018 297.12354129 79.75439453 298.37280273 C74.31384294 301.51202309 68.87252784 304.64990563 63.4296875 307.78515625 C52.8571146 313.87673239 42.29261668 319.98170088 31.75 326.125 C30.77546875 326.69114014 29.8009375 327.25728027 28.796875 327.84057617 C23.77333487 330.76636967 18.77992808 333.73257514 13.8203125 336.765625 C12.32226074 337.67417236 12.32226074 337.67417236 10.79394531 338.60107422 C8.89845621 339.75301666 7.00934062 340.91553704 5.12792969 342.09033203 C-3.17681405 347.118878 -3.17681405 347.118878 -8 346 C-11.3412524 344.42558787 -14.43284067 342.51846602 -17.5625 340.5625 C-19.53451096 339.36352135 -21.50720277 338.16566202 -23.48046875 336.96875 C-24.53282715 336.32550781 -25.58518555 335.68226563 -26.66943359 335.01953125 C-31.92024096 331.8356375 -37.22208242 328.74022047 -42.52462769 325.64352417 C-44.38910559 324.55425924 -46.25246431 323.46310412 -48.11547852 322.37133789 C-56.70397759 317.33856133 -65.30136197 312.32108915 -73.90185547 307.30883789 C-81.77540974 302.71865376 -89.6387568 298.11122 -97.5 293.5 C-106.43181027 288.26104681 -115.3675106 283.02893587 -124.3125 277.8125 C-125.28606445 277.24442627 -126.25962891 276.67635254 -127.26269531 276.09106445 C-132.11763224 273.25928772 -136.97589396 270.43345744 -141.83984375 267.6171875 C-152.59160571 261.38268052 -163.26822142 255.0398413 -173.875 248.5625 C-185.04071346 241.74450816 -196.31375232 235.13735676 -207.66796875 228.63671875 C-212.96285237 225.60466168 -218.22828531 222.52503831 -223.48779297 219.43212891 C-231.12404106 214.94399898 -238.75965178 210.51317186 -246.625 206.4375 C-254.86095806 202.16568416 -262.81148323 197.45845276 -270.7734375 192.69921875 C-275.44323382 189.9110169 -280.14090438 187.17525723 -284.8515625 184.45703125 C-286.86283098 183.29265268 -288.87377574 182.12771685 -290.88464355 180.96264648 C-292.2094405 180.19709992 -293.53569396 179.43406826 -294.86340332 178.67358398 C-296.72276852 177.60805121 -298.5766666 176.53354831 -300.4296875 175.45703125 C-302.04206299 174.5285437 -302.04206299 174.5285437 -303.68701172 173.58129883 C-304.45029785 173.05947021 -305.21358398 172.5376416 -306 172 C-306 171.34 -306 170.68 -306 170 C-295.45898438 163.9765625 -284.91796875 157.953125 -274.37695312 151.9296875 C-273.79822449 151.59898254 -273.21949585 151.26827759 -272.62322998 150.92755127 C-270.89434534 149.93962589 -269.16543441 148.95174649 -267.43652344 147.96386719 C-265.1323264 146.64708962 -262.82826355 145.33008054 -260.52441406 144.01269531 C-255.20093233 140.96903023 -249.87607379 137.92788677 -244.54499817 134.89753723 C-241.52917371 133.18313987 -238.51441125 131.46688075 -235.5 129.75 C-234.91658844 129.41787506 -234.33317688 129.08575012 -233.73208618 128.74356079 C-225.1733801 123.86689244 -216.68576958 118.88610567 -208.30078125 113.71582031 C-204.61482002 111.46382733 -201.04732702 109.55852428 -197.03588867 107.9284668 C-191.93967966 105.60434126 -187.15669216 102.61550748 -182.3125 99.8125 C-181.0685926 99.09659981 -179.82444728 98.38111289 -178.58007812 97.66601562 C-175.99858974 96.18209588 -173.41812751 94.69641474 -170.83837891 93.20947266 C-164.90177693 89.78965046 -158.95007207 86.39631544 -153 83 C-151.2529654 82.00182566 -149.50607419 81.00340073 -147.75920105 80.00494385 C-143.07321872 77.32658644 -138.38651807 74.64949302 -133.69869995 71.97434998 C-117.43910048 62.69563242 -101.20882895 53.36718386 -85 44 C-61.77699606 30.57928044 -61.77699606 30.57928044 -51.984375 24.9921875 C-51.10465782 24.49001205 -51.10465782 24.49001205 -50.20716858 23.97769165 C-47.26251729 22.2973355 -44.31617865 20.62005217 -41.36694336 18.94775391 C-35.57618943 15.65799392 -29.83025984 12.31151383 -24.14453125 8.84375 C-22.51185303 7.85773804 -22.51185303 7.85773804 -20.84619141 6.85180664 C-18.79574161 5.60914341 -16.75437592 4.3513185 -14.72412109 3.07592773 C-6.07378156 -2.14121792 -6.07378156 -2.14121792 0 0 Z " fill="#002698" transform="translate(306,866)"/>
<path d="M0 0 C3.76819205 1.22146852 7.09271126 2.4588498 10.484375 4.51171875 C11.32323242 5.01429199 12.16208984 5.51686523 13.02636719 6.03466797 C13.92516602 6.58010254 14.82396484 7.12553711 15.75 7.6875 C17.72841358 8.87235213 19.70761294 10.05589295 21.6875 11.23828125 C22.72132813 11.85654785 23.75515625 12.47481445 24.8203125 13.11181641 C30.10210722 16.24828756 35.42522175 19.31224859 40.75 22.375 C41.83635742 23.00043701 42.92271484 23.62587402 44.04199219 24.27026367 C46.25630916 25.54478332 48.47082794 26.81895242 50.68554688 28.09277344 C56.12650565 31.22364924 61.56305248 34.36216542 67 37.5 C69.16664498 38.75003758 71.33331166 40.00003756 73.5 41.25 C93 52.5 93 52.5 112.5 63.75 C113.57314453 64.36907227 114.64628906 64.98814453 115.75195312 65.62597656 C117.91228293 66.87242061 120.07244003 68.11916402 122.23242188 69.36621094 C127.74464393 72.54813031 133.26003792 75.72432714 138.78125 78.890625 C148.97123955 84.74043381 159.11934836 90.62739746 169.11328125 96.80664062 C178.78835305 102.75986048 188.67477253 108.35369498 198.52880859 114.00341797 C202.11643469 116.06383162 205.69336278 118.1424398 209.26953125 120.22265625 C211.04414517 121.25318702 212.81892022 122.28343969 214.59375 123.31359863 C216.27596655 124.29126753 217.95636389 125.2720645 219.63671875 126.25292969 C220.66023437 126.8462207 221.68375 127.43951172 222.73828125 128.05078125 C223.63587158 128.57325439 224.53346191 129.09572754 225.45825195 129.6340332 C227.92213502 130.9581544 230.38364731 132.01706574 233 133 C233 133.66 233 134.32 233 135 C235.31 135.66 237.62 136.32 240 137 C240 137.66 240 138.32 240 139 C240.70600342 139.10094971 241.41200684 139.20189941 242.1394043 139.3059082 C245.43410551 140.10533088 247.83633082 141.40602391 250.76953125 143.10546875 C251.89488281 143.75298096 253.02023437 144.40049316 254.1796875 145.06762695 C255.39075814 145.77402309 256.60169268 146.48065261 257.8125 147.1875 C259.05827694 147.90834402 260.30437455 148.62863411 261.55078125 149.34838867 C264.10747587 150.82663758 266.66150659 152.3093408 269.21337891 153.79589844 C272.8183549 155.89589117 276.43018043 157.98378782 280.04296875 160.0703125 C282.19565218 161.31712205 284.34801213 162.56449031 286.5 163.8125 C287.50135986 164.39217529 288.50271973 164.97185059 289.53442383 165.5690918 C290.46150146 166.10961182 291.3885791 166.65013184 292.34375 167.20703125 C293.15005859 167.6760083 293.95636719 168.14498535 294.78710938 168.62817383 C295.51736328 169.08087646 296.24761719 169.5335791 297 170 C297.69548942 170.40423087 298.39097885 170.80846174 299.10754371 171.22494203 C301 173 301 173 301.49679399 175.59115762 C301.4952751 176.64108433 301.49375622 177.69101104 301.49219131 178.77275372 C301.50015551 179.98398173 301.5081197 181.19520975 301.51632524 182.44314164 C301.50491236 183.79418468 301.49312996 185.14522464 301.48101807 186.4962616 C301.48276142 187.92603479 301.48626198 189.35580675 301.49137473 190.78557187 C301.5003451 194.72390099 301.4842832 198.66179736 301.46426249 202.60007131 C301.44703131 206.84341214 301.4528311 211.08672743 301.45587158 215.33009338 C301.4579717 222.68511451 301.44539346 230.03999398 301.42292023 237.39497948 C301.39044866 248.02910473 301.37999818 258.66316131 301.37496826 269.29733077 C301.36620799 286.54941497 301.33957258 303.80142363 301.30175781 321.0534668 C301.26505665 337.81485617 301.23673562 354.57622505 301.21972656 371.33764648 C301.21867567 372.37035878 301.21762477 373.40307108 301.21654204 374.46707769 C301.21132199 379.64775432 301.20626713 384.82843108 301.20129442 390.00910795 C301.1598096 433.0061243 301.08934127 476.00305826 301 519 C296.53983436 520.17284775 294.54335215 519.60656526 290.5078125 517.27929688 C289.84523438 516.87775391 289.18265625 516.47621094 288.5 516.0625 C287.86835937 515.69576172 287.23671875 515.32902344 286.5859375 514.95117188 C282.27781101 512.42965078 278.04390809 509.78903266 273.80078125 507.16015625 C267.18134949 503.07838062 260.45497893 499.20652011 253.6875 495.375 C251.22298884 493.97565927 248.75963971 492.57428688 246.296875 491.171875 C245.68271225 490.82222687 245.0685495 490.47257874 244.43577576 490.11233521 C238.40382986 486.67176961 232.42156952 483.14801695 226.4375 479.625 C219.54179903 475.57374049 212.60723842 471.66759468 205.5 468 C195.18111598 462.67479719 185.21788137 456.77509118 175.21484375 450.88378906 C169.64174987 447.61814566 164.03778058 444.40621483 158.4375 441.1875 C151.19003069 437.01650316 143.9679067 432.81566244 136.81787109 428.47998047 C129.66586397 424.162574 122.40869945 420.02550314 115.16796875 415.859375 C107.76373117 411.59812614 100.37505072 407.31154928 93 403 C81.45288312 396.25268576 69.87097739 389.56660548 58.28222656 382.89111328 C55.01825673 381.01051894 51.75505811 379.12859454 48.4921875 377.24609375 C47.41904297 376.62702148 46.34589844 376.00794922 45.24023438 375.37011719 C43.09266389 374.13063633 40.94552307 372.89041068 38.79882812 371.64941406 C33.72811549 368.71949774 28.65306318 365.79804406 23.56085205 362.90567017 C21.15850054 361.54046335 18.75884109 360.17056329 16.359375 358.80029297 C14.66666782 357.83623142 12.97009646 356.87896467 11.2734375 355.921875 C10.24734375 355.33535156 9.22125 354.74882812 8.1640625 354.14453125 C7.26123535 353.63253174 6.3584082 353.12053223 5.42822266 352.59301758 C2.83447326 350.8914074 0.98108476 349.39446853 -1 347 C-1.49038196 344.27823186 -1.49038196 344.27823186 -1.47657394 341.08858109 C-1.48105474 339.87187863 -1.48553554 338.65517617 -1.49015212 337.40160394 C-1.47481075 336.04957186 -1.45909807 334.69754395 -1.4430542 333.34552002 C-1.44066834 331.9107639 -1.44004518 330.47600394 -1.44103646 329.04124618 C-1.43864649 325.09372193 -1.41118735 321.14670507 -1.3797195 317.19932008 C-1.35016242 312.94445032 -1.34373233 308.68953921 -1.33451843 304.43458557 C-1.31537414 297.06099143 -1.28152015 289.68758188 -1.2377243 282.31409454 C-1.1744239 271.65324387 -1.13323148 260.99239837 -1.09746507 250.33142397 C-1.03883728 233.03548098 -0.96228652 215.73966547 -0.87451172 198.44384766 C-0.78927605 181.64081868 -0.71245213 164.83778605 -0.64697266 148.03466797 C-0.64293477 146.9992314 -0.63889688 145.96379483 -0.63473663 144.89698139 C-0.61453208 139.70259173 -0.59449324 134.50820144 -0.5745368 129.31381083 C-0.40871736 86.20908065 -0.21383058 43.10451694 0 0 Z " fill="#1388DA" transform="translate(601,0)"/>
<path d="M0 0 C0 113.85 0 227.7 0 345 C-2.31 345.99 -4.62 346.98 -7 348 C-8.78510459 348.92497217 -10.55550013 349.87898726 -12.30859375 350.86328125 C-13.28997314 351.41290527 -14.27135254 351.9625293 -15.2824707 352.52880859 C-16.32363037 353.11742676 -17.36479004 353.70604492 -18.4375 354.3125 C-19.53860107 354.93205566 -20.63970215 355.55161133 -21.77416992 356.18994141 C-30.15169721 360.91885319 -38.47109357 365.7432681 -46.76977539 370.60888672 C-54.44185433 375.1041433 -62.15007344 379.53390586 -69.875 383.9375 C-78.93089585 389.10054499 -87.97460062 394.2837369 -97 399.5 C-109.46589391 406.70234818 -121.96361368 413.84829746 -134.46777344 420.98388672 C-139.14922353 423.65560706 -143.82904656 426.33017298 -148.50878906 429.00488281 C-150.82553745 430.32899325 -153.1426601 431.65244182 -155.45996094 432.97558594 C-160.8806374 436.07115378 -166.29932669 439.16999497 -171.71075439 442.28170776 C-174.23979441 443.7356789 -176.77000081 445.18761359 -179.30029297 446.6394043 C-181.06461083 447.65281299 -182.8272578 448.66912893 -184.58984375 449.68554688 C-190.1718464 452.88708695 -195.7788674 455.9210327 -201.55517578 458.75463867 C-206.10881635 461.07420334 -210.4789632 463.71011163 -214.875 466.3125 C-223.80113533 471.55733742 -232.75658845 476.74638034 -241.75 481.875 C-242.32930267 482.20555389 -242.90860535 482.53610779 -243.50546265 482.87667847 C-247.6694308 485.25265967 -251.83457931 487.62656647 -256 490 C-260.29716874 492.4486071 -264.59393011 494.89792423 -268.8895874 497.34918213 C-270.08090158 498.02889892 -271.27234693 498.70838586 -272.46392822 499.38763428 C-280.42770205 503.92833139 -288.36259361 508.51267252 -296.20581055 513.25927734 C-300.78587596 516 -300.78587596 516 -303 516 C-303 402.15 -303 288.3 -303 171 C-244.5 137.25 -244.5 137.25 -241.24951172 135.37475586 C-239.08442929 134.12564482 -236.91939018 132.87645871 -234.75439453 131.62719727 C-229.31384294 128.48797691 -223.87252784 125.35009437 -218.4296875 122.21484375 C-202.90802162 113.27158365 -187.42343655 104.26646305 -171.96044922 95.22216797 C-136.67555587 74.58532231 -136.67555587 74.58532231 -118.75 64.875 C-110.94924565 60.64795353 -103.26245351 56.27571213 -95.63671875 51.7421875 C-89.97521138 48.38062833 -84.26784588 45.09891392 -78.5625 41.8125 C-77.46204346 41.17828125 -76.36158691 40.5440625 -75.2277832 39.890625 C-70.67421544 37.2669481 -66.11979643 34.64475058 -61.56542969 32.02246094 C-44.85038674 22.39662169 -28.15448204 12.74796329 -11.6418457 2.77783203 C-5.2826517 -1.05653034 -5.2826517 -1.05653034 0 0 Z " fill="#1387DA" transform="translate(303,520)"/>
<path d="M0 0 C2.98936616 1.31240465 5.8170034 2.85277237 8.64453125 4.4765625 C9.32580078 4.86368408 10.00707031 5.25080566 10.70898438 5.6496582 C18.73082569 10.23717045 26.66542601 14.97510985 34.6081543 19.69775391 C42.03864456 24.11546821 49.48591946 28.50279083 56.95703125 32.8515625 C65.73623658 37.96235852 74.50686525 43.08747861 83.26953125 48.2265625 C83.8746756 48.58141724 84.47981995 48.93627197 85.103302 49.30187988 C90.05127394 52.20335834 94.99885635 55.10550073 99.94641113 58.00769043 C116.00719895 67.42865835 132.07521484 76.83688441 148.16259766 86.21240234 C152.13249669 88.52635085 156.10155727 90.84173533 160.07055664 93.15722656 C162.07618246 94.3272698 164.08187894 95.49719193 166.08764648 96.66699219 C171.06346078 99.56904473 176.03844545 102.47250107 181.01171875 105.37890625 C194.58122649 113.30654348 208.18197262 121.17864114 221.79980469 129.02294922 C228.30932714 132.77352649 234.81597905 136.52908239 241.32275391 140.28442383 C246.78737788 143.43791412 252.25351027 146.5887329 257.72265625 149.734375 C263.12380217 152.84163323 268.51948223 155.95819434 273.91162109 159.08105469 C276.05331759 160.31930028 278.19692504 161.55424564 280.34228516 162.78613281 C283.44799258 164.57035257 286.54690844 166.36585327 289.64453125 168.1640625 C290.58522461 168.70111816 291.52591797 169.23817383 292.49511719 169.79150391 C293.35008789 170.29085449 294.20505859 170.79020508 295.0859375 171.3046875 C295.83689697 171.73813477 296.58785645 172.17158203 297.36157227 172.61816406 C299.08203125 173.9140625 299.08203125 173.9140625 300.08203125 176.9140625 C299.38980469 177.2951416 298.69757812 177.6762207 297.984375 178.06884766 C294.68191551 179.88922511 291.38125758 181.71283376 288.08203125 183.5390625 C287.47878021 183.87298004 286.87552917 184.20689758 286.2539978 184.55093384 C276.40311834 190.01039261 266.6430661 195.60595519 256.95117188 201.34423828 C244.09407855 208.92830157 244.09407855 208.92830157 237.64453125 211.0390625 C234.93117292 211.63084023 234.93117292 211.63084023 234.08203125 213.9140625 C232.09274956 215.05429792 230.06261066 216.12329115 228.01953125 217.1640625 C221.0804817 220.76762157 214.321712 224.63902572 207.58203125 228.6015625 C199.39664275 233.41169341 191.17420179 238.14307327 182.89453125 242.7890625 C177.09793273 246.04454145 171.33530594 249.31228696 165.70703125 252.8515625 C158.62314648 257.29178988 151.30172458 261.29678283 143.99658203 265.35913086 C136.63985355 269.45868599 129.34336295 273.64805261 122.08203125 277.9140625 C112.93305091 283.28628495 103.70799375 288.5048312 94.4375 293.6640625 C87.2684943 297.66370702 80.16110362 301.75754294 73.08203125 305.9140625 C64.96783825 310.67835931 56.80390539 315.33811622 48.58203125 319.9140625 C40.01231222 324.68609037 31.49223161 329.53415395 23.01953125 334.4765625 C22.03855469 335.04826172 21.05757812 335.61996094 20.046875 336.20898438 C19.11875 336.75232422 18.190625 337.29566406 17.234375 337.85546875 C16.35378418 338.36867676 15.47319336 338.88188477 14.56591797 339.41064453 C12.96112964 340.38197208 11.38139292 341.39654165 9.83642578 342.46044922 C9.15563965 342.92854004 8.47485352 343.39663086 7.7734375 343.87890625 C7.19924072 344.29648193 6.62504395 344.71405762 6.03344727 345.14428711 C3.09403698 346.30379676 1.10313593 345.69688005 -1.91796875 344.9140625 C-4.54150391 343.67749023 -4.54150391 343.67749023 -7.20703125 342.09765625 C-8.72079346 341.21122437 -8.72079346 341.21122437 -10.26513672 340.30688477 C-11.34682129 339.66162842 -12.42850586 339.01637207 -13.54296875 338.3515625 C-14.69614183 337.67331611 -15.84996469 336.99617343 -17.00439453 336.32006836 C-18.81065257 335.26194997 -20.61643547 334.20309019 -22.42025757 333.14082336 C-28.84329369 329.35857714 -35.31597829 325.66564684 -41.79296875 321.9765625 C-43.55485858 320.97120851 -45.31648501 319.9653941 -47.07809448 318.95954895 C-48.8471634 317.94950014 -50.61643468 316.93980658 -52.38574219 315.93017578 C-57.64873403 312.92656747 -62.90968991 309.91939674 -68.17080688 306.9125061 C-69.91739697 305.91438925 -71.66412206 304.91650906 -73.41088867 303.91870117 C-78.69041472 300.90270513 -83.96925052 297.88552943 -89.24490356 294.86276245 C-92.19799891 293.1707841 -95.15159864 291.47968786 -98.10546875 289.7890625 C-98.68647339 289.45650452 -99.26747803 289.12394653 -99.86608887 288.78131104 C-108.10582327 284.06736179 -116.37609403 279.41066735 -124.66796875 274.7890625 C-139.37686854 266.58424887 -153.95949397 258.1571891 -168.35546875 249.4140625 C-175.81217478 244.8905329 -183.442642 240.6811554 -191.06347656 236.44213867 C-199.82064738 231.55954817 -208.49075937 226.53822018 -217.12670898 221.44458008 C-222.7382515 218.12600074 -222.7382515 218.12600074 -228.53125 215.14453125 C-230.91796875 213.9140625 -230.91796875 213.9140625 -231.91796875 211.9140625 C-233.53451473 211.48672458 -235.15113454 211.05966455 -236.76806641 210.63378906 C-241.17801905 209.15746151 -245.10209646 206.61961693 -249.10546875 204.2890625 C-250.57790039 203.44420288 -250.57790039 203.44420288 -252.08007812 202.58227539 C-254.21444131 201.35714693 -256.34702091 200.1289072 -258.47802734 198.89794922 C-262.11490964 196.80048254 -265.75922309 194.71647302 -269.40625 192.63671875 C-270.66838184 191.91684028 -271.93050752 191.19695101 -273.19262695 190.47705078 C-273.81126617 190.12419006 -274.4299054 189.77132935 -275.06729126 189.40777588 C-279.07989459 187.11771435 -283.09151399 184.82615015 -287.08984375 182.51123047 C-288.78424022 181.55432942 -290.49847741 180.62977397 -292.24609375 179.77392578 C-294.16796875 178.82421875 -294.16796875 178.82421875 -296.91796875 176.9140625 C-297.58984375 173.79467773 -297.58984375 173.79467773 -297.91796875 170.9140625 C-297.20592285 170.50792725 -296.49387695 170.10179199 -295.76025391 169.68334961 C-279.5275142 160.42214716 -263.3173707 151.1232639 -247.13574219 141.77294922 C-241.7312623 138.65081645 -236.32449463 135.53265046 -230.91796875 132.4140625 C-228.75129125 131.16408128 -226.58462458 129.91408129 -224.41796875 128.6640625 C-211.41796875 121.1640625 -211.41796875 121.1640625 -208.16650391 119.28833008 C-206.00458991 118.04099702 -203.84280558 116.7934392 -201.68115234 115.5456543 C-196.1928229 112.37797418 -190.70214342 109.21449489 -185.20703125 106.05859375 C-175.39694266 100.42008489 -165.60249378 94.76619809 -155.91796875 88.9140625 C-145.12956307 82.39487724 -134.20367031 76.11938122 -123.2734375 69.84179688 C-117.77675466 66.68392379 -112.28447557 63.51842606 -106.79296875 60.3515625 C-105.72087158 59.73337646 -104.64877441 59.11519043 -103.54418945 58.47827148 C-96.17773146 54.22712903 -88.82524569 49.95254052 -81.48046875 45.6640625 C-80.49385254 45.08841553 -79.50723633 44.51276855 -78.49072266 43.91967773 C-73.86339984 41.21944158 -69.23829233 38.51555102 -64.6171875 35.8046875 C-62.96753253 34.84100097 -61.31779749 33.8774515 -59.66796875 32.9140625 C-58.59784546 32.28322754 -58.59784546 32.28322754 -57.50610352 31.63964844 C-53.44672941 29.27478155 -49.3329812 27.10578051 -45.1171875 25.03125 C-38.91023739 21.96063931 -32.94312403 18.55633196 -26.98046875 15.0390625 C-25.4166748 14.1253186 -25.4166748 14.1253186 -23.82128906 13.19311523 C-19.37882941 10.58806741 -14.95393981 7.9695887 -10.6171875 5.19140625 C-10.0183374 4.80903809 -9.4194873 4.42666992 -8.80249023 4.03271484 C-7.29615109 3.05938801 -5.80176584 2.06762696 -4.30859375 1.07421875 C-1.91796875 -0.0859375 -1.91796875 -0.0859375 0 0 Z " fill="#1388DA" transform="translate(898.91796875,865.0859375)"/>
<path d="M0 0 C136.8414924 0 136.8414924 0 155.83203125 17.6796875 C165.86458009 28.41722626 171.14977885 41.30295033 171 56 C169.93469981 71.69415461 163.92133129 83.95416849 152.25 94.375 C151.51265625 95.00148438 150.7753125 95.62796875 150.015625 96.2734375 C148.25481829 97.78172542 146.61263514 99.3363321 145 101 C145.89460937 101.40089844 146.78921875 101.80179688 147.7109375 102.21484375 C162.40627529 109.02522646 172.50838499 118.37073119 178.375 133.8125 C183.69243167 149.09433623 181.72992428 165.88590331 175.4921875 180.54296875 C171.70686997 188.05198237 166.97345817 194.11233656 161 200 C160.15501953 200.86044922 160.15501953 200.86044922 159.29296875 201.73828125 C145.23134191 214.9787912 125.21462358 216.1744704 106.94091797 216.11352539 C105.76016253 216.11364593 104.57940708 216.11376646 103.36287117 216.11389065 C99.57262355 216.11314927 95.78242623 216.10555658 91.9921875 216.09765625 C89.63940454 216.09618443 87.28662125 216.0951652 84.93383789 216.09460449 C76.24755357 216.08937945 67.56127628 216.07541818 58.875 216.0625 C39.44625 216.041875 20.0175 216.02125 0 216 C0 144.72 0 73.44 0 0 Z M45 38 C45 53.51 45 69.02 45 85 C60.39851123 85.07332624 75.79240777 85.09729409 91.1875 84.75 C92.40775879 84.73590088 93.62801758 84.72180176 94.88525391 84.70727539 C104.57534316 84.43873871 114.49191297 82.59246666 122 76 C126.50042156 70.4414856 126.60176194 64.27743639 126.38671875 57.3515625 C125.71023855 51.48873408 123.82244267 47.82244267 119.6875 43.6875 C112.94972789 39.45680588 106.78145847 37.86993377 98.92456055 37.88647461 C97.12325935 37.88658791 97.12325935 37.88658791 95.28556824 37.88670349 C93.99894791 37.89186478 92.71232758 37.89702606 91.38671875 37.90234375 C90.04865064 37.90421044 88.71058185 37.90563316 87.37251282 37.90663147 C83.8626413 37.91043686 80.35281161 37.92025012 76.84295654 37.93133545 C73.25663835 37.94159223 69.67031314 37.94619312 66.08398438 37.95117188 C59.05595272 37.96134269 52.02803572 37.98091936 45 38 Z M45 122 C45 140.48 45 158.96 45 178 C52.88676765 178.0420877 60.77312199 178.08214156 68.65990448 178.10350037 C72.33362192 178.11400574 76.00724513 178.12801442 79.6809082 178.15087891 C83.22763676 178.17281203 86.77427469 178.18461115 90.3210659 178.18975449 C92.31436022 178.19517936 94.30761873 178.21075852 96.30085754 178.22659302 C108.09543633 178.22802935 118.92402894 177.88685825 127.75390625 169.29296875 C133.91696033 162.47648243 134.62334125 155.94754753 134.37109375 147.02734375 C133.95008118 140.61326975 131.7164696 135.7164696 127.16796875 131.16796875 C120.32844118 125.62349965 112.6808364 123.57874264 104.078125 122.8203125 C103.22341614 122.74032013 102.36870728 122.66032776 101.48809814 122.57791138 C90.25736771 121.63412401 79.01014214 121.78677395 67.75 121.875 C60.2425 121.91625 52.735 121.9575 45 122 Z " fill="#032B91" transform="translate(396,521)"/>
<path d="M0 0 C14.85 0 29.7 0 45 0 C45.33 30.36 45.66 60.72 46 92 C53.9151445 84.11789965 53.9151445 84.11789965 61.34179688 75.91210938 C64.21346853 72.60072357 67.23928648 69.43453769 70.25 66.25 C75.65303985 60.51114413 81.01583362 54.74105737 86.328125 48.91796875 C88.18421267 46.89092564 90.04672262 44.87246132 91.921875 42.86328125 C97.54795093 36.82717083 103.01082521 30.6939776 108.33935547 24.39355469 C112.85006222 19.09638843 117.57814645 14.01748637 122.36865234 8.97314453 C123.20904053 8.0853833 123.20904053 8.0853833 124.06640625 7.1796875 C124.56084229 6.66132324 125.05527832 6.14295898 125.56469727 5.60888672 C127.08425555 4.01005978 127.08425555 4.01005978 128.22418213 1.92782593 C130 0 130 0 132.63859558 -0.48101807 C134.22744316 -0.4676944 134.22744316 -0.4676944 135.84838867 -0.45410156 C137.0494072 -0.45379944 138.25042572 -0.45349731 139.48783875 -0.45318604 C140.78478165 -0.43254089 142.08172455 -0.41189575 143.41796875 -0.390625 C144.7588873 -0.38316314 146.09981676 -0.37746994 147.44075012 -0.37347412 C150.96737866 -0.35821299 154.49334656 -0.31892849 158.01971436 -0.2746582 C161.61917178 -0.23371497 165.21873613 -0.21546522 168.81835938 -0.1953125 C175.87917627 -0.15243366 182.93954497 -0.08417745 190 0 C189.19141329 3.86987694 187.85050814 5.49186275 184.9921875 8.265625 C184.16976562 9.07386719 183.34734375 9.88210938 182.5 10.71484375 C181.63375 11.55144531 180.7675 12.38804687 179.875 13.25 C174.63763401 18.3512265 169.52971306 23.44435281 164.77392578 28.99902344 C160.64687924 33.65430467 156.10592714 37.9294072 151.671875 42.2890625 C147.43193268 46.4857401 143.38054647 50.76068326 139.4921875 55.28515625 C137.74956276 57.28780614 135.90940495 59.1564366 134 61 C131.44130741 63.51955389 129.01829389 66.08118782 126.6875 68.8125 C122.09295432 74.16567997 117.02548895 79.0563002 112 84 C113.34437801 87.68062466 115.00193158 90.72799566 117.203125 93.96484375 C117.84660889 94.91834717 118.49009277 95.87185059 119.15307617 96.85424805 C120.19105347 98.38045776 120.19105347 98.38045776 121.25 99.9375 C131.27845519 114.83288809 140.90855776 129.95385243 150.3125 145.25 C157.30245686 156.61204926 164.6305424 167.74786357 171.96044922 178.89208984 C175.54626223 184.35622674 179.0983191 189.84224673 182.65112305 195.32788086 C186.26421102 200.8968739 189.94801594 206.4109263 193.70703125 211.8828125 C195 214 195 214 195 216 C187.54193139 216.20896154 180.08449802 216.36865359 172.62409019 216.46630955 C169.15930854 216.51319394 165.6965355 216.57671652 162.23291016 216.67895508 C158.24666817 216.7958773 154.26122571 216.83919763 150.2734375 216.87890625 C149.03572601 216.92535782 147.79801453 216.97180939 146.52279663 217.01966858 C138.12179392 217.02458852 138.12179392 217.02458852 134.96911621 214.14509583 C133.3997944 211.83016417 132.1774477 209.53375636 131 207 C130.37319336 205.9694751 129.74638672 204.9389502 129.10058594 203.87719727 C128.56723633 202.94963623 128.03388672 202.0220752 127.484375 201.06640625 C126.87859619 200.01533691 126.27281738 198.96426758 125.64868164 197.88134766 C125.0221167 196.78612793 124.39555176 195.6909082 123.75 194.5625 C123.08011271 193.396255 122.4101079 192.23007749 121.73999023 191.06396484 C117.73927762 184.09154854 113.80105867 177.08685049 109.91674805 170.04907227 C100.00970135 152.13482215 89.84244021 134.36628136 79 117 C75.97489042 119.99571324 72.95572125 122.99734805 69.9375 126 C69.08994141 126.83917969 68.24238281 127.67835938 67.36914062 128.54296875 C63.02714046 132.86820443 58.80432699 137.22024739 54.86547852 141.91796875 C53 144 53 144 51.26728821 145.27149963 C47.93954989 147.93516741 46.23120129 149.88793158 45.34843445 154.13400269 C45.09384469 158.06538444 45.05511107 161.9660613 45.09765625 165.90234375 C45.08826176 167.34967791 45.07579816 168.79699511 45.06040955 170.24427795 C45.02828861 174.03396841 45.03758643 177.82244433 45.05578613 181.61218262 C45.06894456 186.16954451 45.03017568 190.72673054 45.00020599 195.28397369 C44.96055645 202.18999045 44.98648329 209.09296213 45 216 C30.15 216 15.3 216 0 216 C0 144.72 0 73.44 0 0 Z " fill="#032B91" transform="translate(624,521)"/>
<path d="M0 0 C1.084021 0.00523682 2.16804199 0.01047363 3.28491211 0.01586914 C5.03964844 0.02070312 5.03964844 0.02070312 6.82983398 0.02563477 C8.67738281 0.03820312 8.67738281 0.03820312 10.56225586 0.05102539 C12.41560547 0.05779297 12.41560547 0.05779297 14.30639648 0.06469727 C17.37089703 0.07652931 20.43530307 0.09301366 23.49975586 0.11352539 C26.66515109 6.66560487 28.23526918 13.49946922 29.93725586 20.55102539 C30.24219971 21.79335938 30.54714355 23.03569336 30.86132812 24.31567383 C31.46700155 26.78338704 32.07049204 29.25163722 32.67163086 31.72045898 C33.74200572 36.10609277 34.83691041 40.48533587 35.93725586 44.86352539 C36.45808919 46.94685872 36.97892253 49.03019206 37.49975586 51.11352539 C39.02736141 48.27001408 40.01433612 45.57701216 40.8125 42.45263672 C41.04937027 41.53521194 41.28624054 40.61778717 41.5302887 39.67256165 C41.77931442 38.69014999 42.02834015 37.70773834 42.28491211 36.69555664 C42.54606308 35.68257004 42.80721405 34.66958344 43.07627869 33.62590027 C43.90922282 30.39369202 44.73628381 27.1600218 45.56225586 23.92602539 C46.39217123 20.68141838 47.22341123 17.43718055 48.0589447 14.1940155 C48.5787374 12.17609561 49.09522425 10.15732086 49.60816956 8.13764954 C49.84188766 7.22968124 50.07560577 6.32171295 50.31640625 5.38623047 C50.52133194 4.58333084 50.72625763 3.78043121 50.93739319 2.95320129 C51.49975586 1.11352539 51.49975586 1.11352539 52.49975586 0.11352539 C61.40975586 0.11352539 70.31975586 0.11352539 79.49975586 0.11352539 C79.49975586 28.49352539 79.49975586 56.87352539 79.49975586 86.11352539 C73.55975586 86.11352539 67.61975586 86.11352539 61.49975586 86.11352539 C61.16975586 68.95352539 60.83975586 51.79352539 60.49975586 34.11352539 C56.20975586 51.27352539 51.91975586 68.43352539 47.49975586 86.11352539 C41.22975586 86.11352539 34.95975586 86.11352539 28.49975586 86.11352539 C24.53975586 70.60352539 20.57975586 55.09352539 16.49975586 39.11352539 C15.83975586 54.62352539 15.17975586 70.13352539 14.49975586 86.11352539 C8.55975586 86.11352539 2.61975586 86.11352539 -3.50024414 86.11352539 C-3.52279463 75.04817318 -3.54115892 63.98283611 -3.55205631 52.91746616 C-3.55728527 47.77992973 -3.56438315 42.64240977 -3.57568359 37.50488281 C-3.58651201 32.55121129 -3.59252088 27.59755566 -3.59512138 22.64387321 C-3.59697572 20.74954923 -3.60059648 18.85522615 -3.6059742 16.96090889 C-3.61318403 14.31718153 -3.61423511 11.67352069 -3.61376953 9.02978516 C-3.61736481 8.23856766 -3.62096008 7.44735016 -3.62466431 6.63215637 C-3.61225599 0.16401709 -3.61225599 0.16401709 0 0 Z " fill="#1488DB" transform="translate(737.500244140625,774.886474609375)"/>
<path d="M0 0 C5.94 0 11.88 0 18 0 C19 1 19 1 19.11352539 4.05102539 C19.11336634 5.39991271 19.10767612 6.74880614 19.09765625 8.09765625 C19.0962413 8.80651474 19.09482635 9.51537323 19.09336853 10.24571228 C19.08775443 12.51801712 19.07519963 14.79022475 19.0625 17.0625 C19.05748681 18.59960796 19.05292359 20.13671745 19.04882812 21.67382812 C19.0386297 25.44928667 19.01905732 29.22453404 19 33 C29.23 33 39.46 33 50 33 C50 22.11 50 11.22 50 0 C55.94 0 61.88 0 68 0 C68 28.38 68 56.76 68 86 C62.06 86 56.12 86 50 86 C50 74.12 50 62.24 50 50 C39.77 50 29.54 50 19 50 C19 61.88 19 73.76 19 86 C12.73 86 6.46 86 0 86 C0 57.62 0 29.24 0 0 Z " fill="#1488DB" transform="translate(567,775)"/>
<path d="M0 0 C1.12168076 0.00303635 1.12168076 0.00303635 2.26602173 0.00613403 C3.03757599 0.00517731 3.80913025 0.00422058 4.60406494 0.00323486 C6.24675579 0.0025523 7.8894493 0.00441188 9.53213501 0.00857544 C12.00990137 0.01385034 14.48748035 0.00867125 16.96524048 0.00222778 C43.37552036 -0.01312092 43.37552036 -0.01312092 51.68008423 6.13894653 C58.20807613 13.47786911 60.1830102 21.14900208 59.98477173 30.81863403 C59.33182856 37.93404033 57.12577407 43.18581947 51.86758423 48.07644653 C40.38788167 57.06148076 26.47972837 55.24192895 12.68008423 55.13894653 C12.68008423 65.36894653 12.68008423 75.59894653 12.68008423 86.13894653 C6.41008423 86.13894653 0.14008423 86.13894653 -6.31991577 86.13894653 C-6.34246626 75.07359432 -6.36083055 64.00825725 -6.37172794 52.94288731 C-6.3769569 47.80535087 -6.38405478 42.66783091 -6.39535522 37.53030396 C-6.40618365 32.57663243 -6.41219251 27.6229768 -6.41479301 22.66929436 C-6.41664735 20.77497037 -6.42026811 18.88064729 -6.42564583 16.98633003 C-6.43285566 14.34260268 -6.43390674 11.69894183 -6.43344116 9.0552063 C-6.43703644 8.2639888 -6.44063171 7.4727713 -6.44433594 6.65757751 C-6.43229046 0.37857287 -6.30366375 0.02900047 0 0 Z M12.68008423 17.13894653 C12.68008423 24.39894653 12.68008423 31.65894653 12.68008423 39.13894653 C26.72736305 39.90854375 26.72736305 39.90854375 38.68008423 34.13894653 C40.78865876 31.48030909 40.68032037 30.15193446 40.61758423 26.70144653 C39.50948659 22.49067553 37.99371965 20.88683932 34.68008423 18.13894653 C32.27948606 16.93864745 30.78647773 17.02434911 28.10977173 17.04129028 C27.30265747 17.04378784 26.49554321 17.0462854 25.66397095 17.04885864 C24.12507202 17.06251465 24.12507202 17.06251465 22.55508423 17.07644653 C19.29633423 17.09707153 16.03758423 17.11769653 12.68008423 17.13894653 Z " fill="#1488DB" transform="translate(478.3199157714844,774.8610534667969)"/>
<path d="M0 0 C5.36495211 4.36040347 9.53873836 10.58610287 10.5625 17.5 C10.60375 18.44875 10.645 19.3975 10.6875 20.375 C8.62668639 20.88190584 6.56376474 21.38024619 4.5 21.875 C3.35144531 22.1534375 2.20289063 22.431875 1.01953125 22.71875 C-4.46055444 23.79806348 -4.46055444 23.79806348 -7.3125 23.375 C-8.7890625 21.73046875 -8.7890625 21.73046875 -9.9375 19.5625 C-12.25698481 15.28935517 -13.87641193 12.93817179 -18.5 11.125 C-24.23131847 9.99752751 -28.8251153 10.38785269 -34.0625 13.0625 C-39.08691324 16.63756327 -41.70323059 20.7168526 -42.99609375 26.78515625 C-44.33992052 37.78462723 -44.37911753 49.64404685 -38.5 59.375 C-33.35257601 64.08121622 -28.74068282 64.93508915 -21.93359375 64.72265625 C-16.73537559 64.03317575 -14.1906611 61.49709473 -11.0625 57.5 C-9.3792811 54.49425197 -8.25689443 51.68038052 -7.3125 48.375 C-1.20064126 48.94091285 5.05729654 49.80683702 10.6875 52.375 C12.08771581 56.57564744 10.7374158 58.70995779 9.046875 62.67578125 C4.76171192 71.18453898 -0.94155811 76.94656999 -9.84375 80.33984375 C-21.4232682 83.95012457 -32.16526321 83.09394821 -43.3125 78.375 C-46.31876181 76.66767947 -48.80622858 74.74905985 -51.3125 72.375 C-51.85390625 71.87355469 -52.3953125 71.37210938 -52.953125 70.85546875 C-62.92698058 60.50381561 -63.70669182 46.92217911 -63.51953125 33.40625 C-63.16025341 21.53906044 -59.44841295 12.09826103 -51.39453125 3.2734375 C-37.50703497 -9.75475262 -15.55980679 -10.31459885 0 0 Z " fill="#1488DB" transform="translate(711.3125,780.625)"/>
<path d="M0 0 C8.71844341 -0.02255338 17.43686759 -0.04091645 26.15533352 -0.05181217 C30.20325742 -0.05704041 34.25116041 -0.06413699 38.29907227 -0.07543945 C42.20235971 -0.08627043 46.10562699 -0.09227728 50.0089283 -0.09487724 C51.50133647 -0.09673111 52.99374348 -0.100351 54.48614311 -0.10573006 C56.56948139 -0.11294331 58.65273531 -0.11399083 60.73608398 -0.11352539 C61.92411118 -0.115746 63.11213837 -0.11796661 64.33616638 -0.12025452 C67 0 67 0 68 1 C68.09975032 3.51136104 68.13882183 5.98903415 68.125 8.5 C68.12886719 9.20253906 68.13273437 9.90507813 68.13671875 10.62890625 C68.12661378 15.87338622 68.12661378 15.87338622 67 17 C59.08 17 51.16 17 43 17 C43 39.77 43 62.54 43 86 C37.06 86 31.12 86 25 86 C25 63.23 25 40.46 25 17 C16.75 17 8.5 17 0 17 C0 11.39 0 5.78 0 0 Z " fill="#1488DB" transform="translate(396,775)"/>
<path d="M0 0 C5.94 0 11.88 0 18 0 C18 5.94 18 11.88 18 18 C12.06 18 6.12 18 0 18 C0 12.06 0 6.12 0 0 Z " fill="#1488DB" transform="translate(535,843)"/>
</svg>
